<svg xmlns="http://www.w3.org/2000/svg" viewBox="0 0 341.09 308.55"><defs><style>.cls-1,.cls-12{fill:#232223;stroke:#fff;stroke-miterlimit:10;}.cls-1{stroke-width:3px;}.cls-2{fill:#877b6c;}.cls-3{fill:#d7e8c4;}.cls-4{fill:#60513a;}.cls-5{fill:#514940;}.cls-6{fill:#ecedeb;}.cls-7{fill:#fff;}.cls-8{fill:#ead5c2;}.cls-9{fill:#e8f4dc;}.cls-10{fill:#ddeaf2;}.cls-11{fill:#efdce4;}</style></defs><title>oysterWithCaviar</title><g id="Layer_8" data-name="Layer 8"><circle class="cls-1" cx="164.23" cy="156.71" r="146"/></g><g id="Layer_5" data-name="Layer 5"><path class="cls-2" d="M218.77,124.16c7.11.22,13.12,5.53,20,7,8.15,1.68,15.48-1.72,22.87-4.65l6.09-2.41c1.13-.45,4.67-2.6,5.78-2.26,1.78.54,2.5,6.87,3.42,8.84,3.1,6.59,10,10.11,17.18,9.93a28.43,28.43,0,0,0,12.36-3.13l1.61-.71c-1.3-.1-1.31.26,0,1.09.6,1.48,1.88,2.71,2.46,4.27,2.38,6.43.39,12.33-4.13,17.13-4.91,5.24-9.45,9.82-12.25,16.57-2.17,5.23-3.37,12.47-8.82,15.31-6.84,3.58-.78,13.94,6.06,10.36,11.31-5.91,10.39-19.42,18-28.13,4.42-5.06,9.61-9.1,12.21-15.5a27.65,27.65,0,0,0,.89-17.65c-1.51-5.39-5.18-12-10.44-14.54-6.92-3.38-12.91,4.08-19.94,2.85-3.72-.64-4.48-3.18-5.34-6.45-.9-3.43-2.12-6.66-4.7-9.19-5.82-5.72-12.87-2.21-19.26.33-7.12,2.82-15.8,8.17-23.58,5.64-7-2.3-12.81-6.43-20.46-6.66s-7.72,11.77,0,12Z"/><path class="cls-2" d="M296.52,138.71A39.8,39.8,0,0,1,299.3,159c-.89,7.66,11.1,7.58,12,0l2-16.94c.45-3.74-4.2-7-7.59-5.78-5.19,1.85-10,0-14.64-2.5a60.31,60.31,0,0,1-6.22-3.62c-2.43-1.71-3-3.48-4.51-5.92-5.87-9.52-17.65-4.5-24.51,1-8.92,7.14-6.26,18.06-6.09,28.11a226.67,226.67,0,0,1-2.51,37.81l11.78,1.6c2.46-20.69,11.27-40.13,11-61.23l-11.79,1.6a264.22,264.22,0,0,1,7.7,62.36c0,7.72,11.86,7.72,12,0l.64-37.65c.19-10.74,2-22.7-3-32.62C274,122,268.41,121,266.1,124c-7,9.08,3.13,16.22,8.88,22.6a158.14,158.14,0,0,1,18.34,25.14c3.39,5.69,13.16,2,11-4.63a173.21,173.21,0,0,1-5.2-19.39l-5.78,7.6,6.26-.27a6,6,0,0,0,1.59-11.79c-10.52-3.47-21.3,2.31-27.15,11.15-7.05,10.67-5.25,24.36-3.63,36.3.78,5.79,8.3,4.94,11,1.44a58.33,58.33,0,0,0,11.67-38c-.36-7.71-11.67-7.74-12,0l-1.58,37.7c-.26,6.26,8.09,7.74,11.18,3a54.91,54.91,0,0,0,8.33-21.16c1.25-7.46-9.73-10.83-11.57-3.19s-3.93,14-10.07,19.27S264.47,200,258,204.86c-13.27,10-27,19.33-42,26.59-6.95,3.37-.87,13.72,6.06,10.36,16.59-8.05,31.68-18.63,46.28-29.83,6.62-5.08,13.87-10,19.81-15.84,6.25-6.19,8.84-14.12,10.85-22.47l-11.57-3.19a46.6,46.6,0,0,1-7.12,18.3l11.18,3,1.58-37.7H281a48,48,0,0,1-10,31.94l11,1.43c-1.06-7.85-2.44-17.1,1-24.58,2.62-5.69,8.69-10.2,15-8.11l1.6-11.78-6.26.27a6.09,6.09,0,0,0-5.79,7.59,173.21,173.21,0,0,0,5.2,19.39l11-4.62A176.54,176.54,0,0,0,290.12,146q-3.74-4.72-7.82-9.16c-1.16-1.27-2.35-2.52-3.55-3.75-.81-.82-1.62-1.63-2.44-2.43-1-1.8-1.6-1.19-1.72,1.82l-9.43-1.22c2,4,1.67,8.69,1.6,13.05q-.13,8.7-.29,17.38l-.58,33.79h12a278,278,0,0,0-8.13-65.55c-1.62-6.57-11.88-5.18-11.78,1.59.3,20.92-8.52,40.62-11,61.23-.79,6.65,10.77,8.28,11.79,1.59A249.93,249.93,0,0,0,261.72,162c.12-5.46,0-10.93-.24-16.39-.27-5.19-1.34-9.14,3.54-12.25a18.32,18.32,0,0,1,5.07-2.51c1-.26-.49-1.11.24.13s1.09,2.31,1.82,3.38c2.47,3.6,6.25,6,10,8.14,8.1,4.69,17.45,8.67,26.79,5.33L301.3,142l-2,16.94h12a47.25,47.25,0,0,0-3.21-23.45c-2.88-7.05-14.49-4-11.57,3.19Z"/><path class="cls-2" d="M260.23,170.21A42.34,42.34,0,0,1,251.08,201l9.42,1.21a2.61,2.61,0,0,1-.92-2.37,6.08,6.08,0,0,0-10.24-4.25,127.75,127.75,0,0,1-39.07,24.11l4.63,11,41.23-29.73c6.2-4.47.22-14.89-6.06-10.36l-41.23,29.73c-5,3.64-2.23,13.63,4.62,11a143.9,143.9,0,0,0,44.37-27.19l-10.25-4.24a15,15,0,0,0,2.56,8.43c2,2.89,6.8,4.41,9.42,1.21,9.12-11.09,13.88-24.84,12.67-39.24-.64-7.64-12.65-7.71-12,0Z"/><path class="cls-2" d="M276.26,196.92c.38,2.34-4.5,6-6,7.41q-2.91,2.86-6,5.55a131,131,0,0,1-15.1,11.33,137.09,137.09,0,0,1-33.27,15.59c-7.34,2.31-4.21,13.9,3.19,11.57a148.11,148.11,0,0,0,59.07-35c5.78-5.6,11.06-11.07,9.66-19.65-1.24-7.6-12.8-4.38-11.57,3.19Z"/><path class="cls-2" d="M281.77,196.6a140.44,140.44,0,0,1-8.24,12c-2.57,3.2-6.22,5.84-8.31,9.38-.43.85-.81,1.71-1.16,2.59q.84-2-1.55-.21c-2.25.33-4.86,1.89-7,2.72l-14,5.43c-7.12,2.76-4,14.37,3.19,11.57l16.64-6.45c4.15-1.61,10.44-2.8,13.05-6.79.93-1.41,1.25-2.74,2.38-4,1.71-1.95,3.61-3.71,5.25-5.72a156.79,156.79,0,0,0,10.12-14.42c4.19-6.51-6.2-12.54-10.36-6.05Z"/><path class="cls-2" d="M231.2,215.55c-14.81,1.76-27,10-40.86,14.72a233.18,233.18,0,0,1-23,6.2c-8.18,1.88-16.43,3.79-24.86,3.93-8,.14-15.27-2.14-23-3.75A51.43,51.43,0,0,0,108,235.36c-3.08.07-6.48.94-9.46-.09-4.92-1.71-8.48-6.75-12.77-9.58a20.81,20.81,0,0,0-6.89-3,22,22,0,0,0-4.57-.42c-1.18.08-2.35.13-3.53.16-1.35-.46-1.4,0-.17,1.29-.39-7.68-12.39-7.73-12,0s6.9,10.73,13.93,10.65c6.71-.07,9.75,4.07,14.78,8,6,4.68,11.53,5.45,19,5.11,8.91-.41,17.14,3,25.86,4.27,17.34,2.52,35.58-2.54,52.21-7.09a149.6,149.6,0,0,0,23.73-8.81c7.36-3.43,14.86-7.29,23-8.26,7.58-.89,7.67-12.9,0-12Z"/><path class="cls-2" d="M88.73,233.69c8.75.51,17.09-1,25.54,2a159,159,0,0,0,23.13,6.63l1.6-11.79a103.78,103.78,0,0,1-27-1.62c-6.31-1.28-17.32-6.15-23.22-1.59-6.08,4.69-.48,14.16,3.13,18.71,5,6.28,13.85,5.08,21,4.27,6.55-.74,8.36-9.54,1.6-11.78a95.42,95.42,0,0,0-22.31-4.44c-7.7-.64-7.65,11.36,0,12a81.79,81.79,0,0,1,19.12,4L113,238.28c-2.74.31-9,1.58-11.35.56-1.4-.61-3.56-6.14-3.85-7.77l-.61,4.63.49-.66L94,237.8c2.46-1,6.76.79,9.29,1.4,4,1,8,1.79,12.11,2.37a116,116,0,0,0,23.56.94c6.36-.39,8.61-10.42,1.59-11.78-8.64-1.68-16.6-4.57-24.94-7.26-8.84-2.85-17.85-1.25-26.92-1.78-7.71-.45-7.69,11.55,0,12Z"/><path class="cls-2" d="M132.67,243.32c13.7,1.85,27-2.58,40.12-5.84l42.07-10.41c7.49-1.85,4.32-13.43-3.19-11.57L173.43,225c-6,1.49-12.06,3-18.1,4.48-6.32,1.54-12.92,3.19-19.47,2.31-3.23-.44-6.4.78-7.38,4.19-.8,2.79,1,6.94,4.19,7.38Z"/><path class="cls-2" d="M214.22,231.79A66.5,66.5,0,0,0,191.54,234c-7.43,2-14.7,6.46-22.3,7.46-3.24.43-6,2.45-6,6,0,2.91,2.79,6.42,6,6,7.8-1,14.59-4.62,22-6.9a59.43,59.43,0,0,1,22.93-2.72c7.69.67,7.64-11.33,0-12Z"/><path class="cls-2" d="M162.73,251.21c7.72,0,7.73-12,0-12s-7.73,12,0,12Z"/><path class="cls-2" d="M142.23,244.21h-1.5a6.16,6.16,0,0,0-4.24,1.76,6,6,0,0,0,0,8.48,6.2,6.2,0,0,0,4.24,1.76h1.5a6.18,6.18,0,0,0,4.24-1.76,6,6,0,0,0,0-8.48,6.2,6.2,0,0,0-4.24-1.76Z"/><path class="cls-2" d="M188.73,251.19a97.36,97.36,0,0,0,27.11-2.62c7.51-1.79,4.33-13.37-3.19-11.57a85.12,85.12,0,0,1-23.92,2.19c-7.72-.36-7.7,11.65,0,12Z"/></g><g id="Layer_4" data-name="Layer 4"><path class="cls-3" d="M57.27,79.66c-7.15-.34-14.66,7.24-20.19,11-1.58,1.07-.12,3.65,1.52,2.59A135.41,135.41,0,0,0,50.44,84.6l-2.12-2.12a33.71,33.71,0,0,1-12.54,8.39c-1.78.68-1,3.56.8,2.89A25.21,25.21,0,0,0,48.45,85l-2.59-1.52c-2.34,3.8-7.44,4.23-10.93,6.57a22.21,22.21,0,0,0-6,6.31c-4.22,6.32-6.31,13.87-12,19.18l2.5.66c-.32-1.91,3.16-5.42,4-7a28.47,28.47,0,0,0,2.36-6.08,1.5,1.5,0,0,0-2.89-.8c-1.15,4.12-3.08,6.51-5.3,10A5.61,5.61,0,0,0,16.57,117a1.52,1.52,0,0,0,2.51.66c5.57-5.2,7.87-12.4,11.79-18.73a20.07,20.07,0,0,1,9.92-8.46c3.11-1.32,5.83-2.5,7.66-5.47,1-1.69-1.46-3-2.59-1.52a21.52,21.52,0,0,1-10.08,7.43l.8,2.89A37,37,0,0,0,50.44,84.6c1.36-1.42-.65-3.32-2.12-2.12a128.49,128.49,0,0,1-11.24,8.19l1.52,2.59,8.31-5.67c3.12-2.13,6.37-5.12,10.36-4.93,1.93.09,1.92-2.91,0-3Z"/><path class="cls-3" d="M151.36,101.7c12.4,2.07,24.39,8.15,35.18,14.42,11.94,6.95,17.23,17.35,21.94,29.85.68,1.79,3.58,1,2.9-.79-4.47-11.85-9.47-22.7-20.41-29.86-11.35-7.42-25.37-14.27-38.81-16.51-1.89-.31-2.7,2.58-.8,2.89Z"/><path class="cls-3" d="M149.39,165c-10.11,3.86-9.23,20.41-3.45,27.55,8,9.9,22.13,12.35,33.92,14.4,1.88.33,2.69-2.56.79-2.89-8.65-1.51-17.67-3-25.33-7.59-5.13-3-9.5-7.21-10.18-13.41-.56-5.12-.7-13,5.05-15.16,1.79-.68,1-3.58-.8-2.9Z"/><path class="cls-3" d="M247.3,134.89a217.93,217.93,0,0,0-2.73,33.55c0,1.95,2.84,1.89,3,0l1.61-19.52-3,.4c1.68,5.65-.23,11-1.5,16.47-1.18,5.07-.54,10-1.27,15.08-.27,1.89,2.62,2.71,2.89.8a67.64,67.64,0,0,0,.3-8.18,45.7,45.7,0,0,1,1.78-10.11c1.25-5,2.2-9.78.69-14.86a1.5,1.5,0,0,0-2.94.4l-1.61,19.52h3a211.26,211.26,0,0,1,2.62-32.75c.3-1.89-2.59-2.7-2.89-.8Z"/><path class="cls-3" d="M247.62,143.13c1.8,12.65-5.32,24.58-3,37.28.33,1.79,2.78,1.16,2.94-.39a128.58,128.58,0,0,0,.64-17l-2.94.4a35.84,35.84,0,0,1,.62,17.93l1.84-1.05-1.62-.55c-1.83-.62-2.62,2.28-.79,2.9l1.61.54a1.52,1.52,0,0,0,1.85-1,39,39,0,0,0-.62-19.52,1.51,1.51,0,0,0-3,.4,128.58,128.58,0,0,1-.64,17l2.95-.4c-2.32-12.58,4.78-24.61,3-37.28-.27-1.91-3.16-1.1-2.89.79Z"/><path class="cls-3" d="M17.14,146.19c1,4.87-2,9.49-2.62,14.24a29,29,0,0,0,.2,7.78c1,6.89,3.88,13.6,7.06,19.77a61.91,61.91,0,0,0,11.63,16.16c4.77,4.62,11.44,7.53,14.73,13.49l2.36-1.82-24-21.87c-1.43-1.3-3.55.81-2.12,2.12l24,21.87a1.5,1.5,0,0,0,2.35-1.82C48,211.15,43.32,208.45,39,205a54.46,54.46,0,0,1-13.86-17.11c-3.6-6.66-7-14.24-7.69-21.86-.66-7.22,4-13.64,2.58-20.67-.39-1.89-3.28-1.09-2.89.8Z"/><path class="cls-4" d="M285.32,158.68c-6.07-2.85-8.58,4.21-13,6.48l1.81,2.36a45.77,45.77,0,0,1,13.53-8.34c1.77-.7,1-3.6-.8-2.89A49.71,49.71,0,0,0,272,165.4c-1.32,1.17.37,3.1,1.82,2.35,2.82-1.44,6.47-8.13,10-6.47,1.74.81,3.26-1.77,1.52-2.6Z"/><path class="cls-4" d="M291.9,153.88a100.46,100.46,0,0,0,10-11.49c1.16-1.55-1.44-3-2.59-1.51a95.83,95.83,0,0,1-9.55,10.88c-1.38,1.36.74,3.48,2.12,2.12Z"/><path class="cls-4" d="M301.23,173.71v5.16h3v-4.69a1.5,1.5,0,0,0-3,0v6.53a1.5,1.5,0,0,0,3,0v-6.53h-3v4.69a1.5,1.5,0,0,0,3,0v-5.16a1.5,1.5,0,0,0-3,0Z"/><path class="cls-4" d="M277.65,194.77q-4.72,7.6-9.84,14.94c-1.11,1.59,1.49,3.09,2.59,1.52q5.12-7.33,9.84-14.94c1-1.65-1.58-3.16-2.59-1.52Z"/><path class="cls-4" d="M266.72,142l-5,3.33-2.12,1.43c-.54.37-3.33,1.62-.85,2,1.88.27,2.7-2.62.79-2.89-1.75-.26-3.85-.31-4.78,1.54a2.58,2.58,0,0,0,1.26,3.61c1.69.71,3.41-.51,4.75-1.41l7.41-5c1.6-1.07.1-3.67-1.51-2.59Z"/><path class="cls-4" d="M251.71,123.89a42,42,0,0,0,11.41-6.34c1.52-1.18-.61-3.29-2.12-2.12A37.23,37.23,0,0,1,250.92,121c-1.8.66-1,3.56.79,2.89Z"/><path class="cls-4" d="M308.7,131.71a14,14,0,0,0,1.32,6.21c.8,1.76,3.39.23,2.59-1.51a10.55,10.55,0,0,1-.91-4.7c.05-1.93-2.95-1.93-3,0Z"/><path class="cls-4" d="M320,145.69l-.48,4.66,2.94-.4a12.86,12.86,0,0,1-.22-4.24,1.51,1.51,0,0,0-1.5-1.5,1.53,1.53,0,0,0-1.5,1.5,15.25,15.25,0,0,0,.33,5,1.48,1.48,0,0,0,1.65,1.07,1.53,1.53,0,0,0,1.3-1.47l.48-4.66a1.51,1.51,0,0,0-1.5-1.5,1.53,1.53,0,0,0-1.5,1.5Z"/><path class="cls-4" d="M217.62,218.09a58.32,58.32,0,0,1-21.34,12c-1.83.57-1.05,3.47.8,2.89a62.13,62.13,0,0,0,22.66-12.78c1.45-1.28-.68-3.39-2.12-2.12Z"/><path class="cls-4" d="M168.73,244.74a9,9,0,0,0,7.76-3.8c1.15-1.55-1.46-3.05-2.59-1.52a6,6,0,0,1-5.17,2.32c-1.93-.1-1.93,2.9,0,3Z"/><path class="cls-4" d="M90.42,236.38a73.44,73.44,0,0,1,7.22,2.82l.36-2.74a4.6,4.6,0,0,1-4-.59c-1.63-1-3.14,1.56-1.51,2.59a7.61,7.61,0,0,0,6.3.9c1.14-.33,1.59-2.19.36-2.75a78.45,78.45,0,0,0-8-3.12c-1.83-.61-2.62,2.29-.79,2.89Z"/><path class="cls-5" d="M238.54,199.6c-23.16,20.3-53.52,30.48-83.86,33.25a104.6,104.6,0,0,1-11.46.71c-3.89-.07-6.39-1.8-9.77-3.48-6.47-3.22-13.54-4.32-20.7-4.53-8.17-.25-16.32.54-24.48.24a143,143,0,0,1-26.94-3.66c-5.64-1.31-8,7.37-2.4,8.68a156.93,156.93,0,0,0,27.44,3.9c8.8.44,17.58-.43,26.38-.16a45.9,45.9,0,0,1,11.88,1.66c3.69,1.1,6.71,3.24,10.18,4.77,6.91,3.05,15.88,1.33,23.16.54,31.74-3.43,62.69-14.31,86.93-35.56,4.37-3.82-2-10.17-6.36-6.36Z"/><path class="cls-5" d="M246.58,206.46a39.86,39.86,0,0,0,3.59-19.75c-.47-5.73-9.47-5.78-9,0a30.61,30.61,0,0,1-2.37,15.21c-2.34,5.24,5.42,9.83,7.78,4.54Z"/><path class="cls-5" d="M149.16,235.86c-5.1,2.61-14.31,6.25-19.81,3.08-2.39-1.38-4.07-3.9-6.43-5.45a21.86,21.86,0,0,0-8.09-3.13c-5.66-1.05-8.08,7.62-2.39,8.68,7.7,1.43,10.93,9,19.06,9.8,7.64.71,15.48-1.76,22.2-5.21,5.15-2.65.61-10.42-4.54-7.77Z"/><path class="cls-5" d="M127.23,243.21c5.79,0,5.8-9,0-9s-5.8,9,0,9Z"/><path class="cls-5" d="M85.49,236.33c15-3.35,27.65,10.68,41.41,14.29,14,3.67,27.33-2.1,40.14-7.2a99.53,99.53,0,0,1,20-6,72.41,72.41,0,0,0,21.07-6.66c7.5-3.81,14.83-8,22.22-12,5.78-3.13,11.89-5.89,15.92-11.29s8-13.51,8.43-20.47c.5-8.09-5.18-15.65-4-23.61.87-5.66-7.8-8.11-8.68-2.39a28.8,28.8,0,0,0,.61,11.65c1,4.19,3,8.39,3.08,12.77.06,7.57-5.59,17.35-12,21.23-8.71,5.27-18,9.86-27,14.66a64.3,64.3,0,0,1-12.05,5.37c-4.39,1.3-9,1.76-13.43,2.67-16.25,3.32-32.51,16-49.63,13.11-8.43-1.44-15.5-6.71-23-10.42-8.11-4-16.57-6.43-25.58-4.42-5.65,1.26-3.26,9.94,2.39,8.68Z"/></g><g id="Layer_2" data-name="Layer 2"><path class="cls-6" d="M184.74,86.59C180,80.39,169.88,83,163,79.35c-4.12-2.2-6.67-6.44-10.07-9.63-8-7.51-19.91-8.63-30.87-9.36L96.79,58.68c-4.73-.31-9.67-.59-14,1.36-3.11,1.4-5.6,3.83-8.27,6-6.09,4.85-13.23,8.19-20.14,11.78-11.22,5.82-22.33,12.7-29.73,22.94-5.62,7.79-8.77,17.08-10.95,26.43s-3.49,19.17-2.48,28.79c1.31,12.47,6.39,24.18,11.41,35.66,1.62,3.71,3.32,7.53,6.27,10.3,4.81,4.5,12.66,6,15.3,12,.66,1.5.94,3.22,2,4.45A8,8,0,0,0,50,220.44c13.31,4.27,27.63,3.53,41.56,4.74a126.21,126.21,0,0,1,41.08,10.38c2.35,1.06,4.79,2.23,7.37,2.07,4.21-.25,7.4-3.92,11.43-5.18,2.47-.78,5.13-.6,7.72-.61,11.55,0,22.72-3.77,33.66-7.47,14.12-4.77,28.4-9.61,41-17.63,6.39-4.09,12.58-9.42,14.75-16.69a39.11,39.11,0,0,0,1.14-10.19L250.74,132a5.44,5.44,0,0,0-.25-2.2c-.77-1.85-3.16-2.23-5.14-2.5-12.14-1.67-22.7-9.07-31.87-17.2s-17.58-17.28-28-23.7"/><path class="cls-7" d="M185.81,85.53c-6.63-7.51-18.23-3.27-25.45-10-3.48-3.25-6.11-7.18-10.17-9.83A38.91,38.91,0,0,0,136,60.42c-10.93-2.08-22.35-2.11-33.42-2.85-5.52-.37-11.4-1.26-16.87,0-6,1.32-10,5.93-14.86,9.32-9.94,7-21.52,11.13-31.53,18C30.89,90.7,23.67,97.94,19,107.19a88.26,88.26,0,0,0-4,69.88c1.81,4.9,3.89,9.69,6,14.47,2,4.53,4,9.06,7.86,12.28,3.44,2.85,7.87,4.23,11.23,7.17,3.56,3.11,3.3,8.08,7.77,10.26,10.06,4.9,23.68,4.3,34.56,4.85,12.83.65,25.47,2.32,37.73,6.26,5.56,1.79,10.8,4.91,16.42,6.36,4.62,1.2,7.91-1,11.8-3.13,5.63-3.14,11.83-2,18-2.73a103.39,103.39,0,0,0,18.13-4.18A341.28,341.28,0,0,0,217.1,217c10-4.26,21.13-9.51,28.18-18.09,7.93-9.66,6-23.35,6.23-35l.55-23.91c.08-3.58,1.64-9.62-1.46-12.41-1.74-1.56-4.34-1.56-6.5-2a44.11,44.11,0,0,1-10.62-3.44,75.33,75.33,0,0,1-16.4-10.92c-10.34-8.71-19.36-18.85-30.85-26.13-1.64-1-3.14,1.56-1.52,2.59,17.52,11.1,29.69,29.63,49.12,37.88a47.58,47.58,0,0,0,6.24,2.19c2,.52,5,.39,6.71,1.31,4.5,2.42,2.2,14.22,2.1,18.87-.27,11.73,0,23.61-.84,35.31-.87,12.64-10.08,19.62-20.41,25.34-10.08,5.58-21,9.45-31.84,13.15-10.7,3.64-21.64,7.69-33,8.43-4.38.29-8.9-.39-13.06,1.29-5.68,2.31-8.36,6-15.08,3.3-10.38-4.2-20.57-7.81-31.67-9.67-10.45-1.75-21-1.89-31.52-2.61A96.4,96.4,0,0,1,53.87,220c-3.36-.87-6.38-1.9-7.77-5.31a15.33,15.33,0,0,0-2.14-4c-2.28-2.87-5.67-4.52-8.78-6.3a23.44,23.44,0,0,1-10.31-11.44c-4.73-10.24-9.34-21-11.41-32.1-2.27-12.2-.6-24.68,2.51-36.59,2.79-10.67,7.2-20.77,15.07-28.69,7.56-7.62,17-12.87,26.51-17.72,5.59-2.87,11.24-5.71,16.31-9.45,5.78-4.27,9.89-8.32,17.57-8.43,12.3-.18,25.18,1.19,37.42,2.45,5.89.61,12,1.66,17.3,4.4,5.14,2.66,8,7,12.09,10.84a19.6,19.6,0,0,0,10.65,5.08c5.21.91,11,.62,14.79,4.92,1.28,1.45,3.4-.68,2.13-2.12Z"/><path class="cls-8" d="M216.24,111.91c7.51.91,13.59,6,21,7.41,6.89,1.3,14,0,20.4-2.61,6.27-2.56,15.48-10.35,22.39-5.66,5.49,3.74,2.58,12.43,7.06,17.1,3.75,3.9,8.77,3.18,13,.7,4.66-2.71,8.54-4.41,13.28-.46a23,23,0,0,1,6.55,10c2.71,7.66,3,16.45-3.07,22.54-2.49,2.49-5.29,4.42-7.42,7.27a46.28,46.28,0,0,0-5,9.08C297.84,192.21,290,206.21,279.74,219c-2.23,2.78-4.49,6.08-7.3,8.32-3.62,2.91-8.33,2.27-12.59,3.39-7.15,1.9-13.19,6.5-19.78,9.69-28.3,13.69-61.27,6.85-91.35,11.86a50.73,50.73,0,0,1-7.51,1.17c-3.32.05-5.49-1.39-8.31-2.72a28.06,28.06,0,0,0-9.78-2.45c-8.63-.7-17.33,1.64-25.89-.27a17.5,17.5,0,0,1-11-7.09c-1.57-2.24-2.92-4.7-5.39-6.08-3.36-1.87-7.67-1.22-11.26-2.4a22.25,22.25,0,0,1-11.44-8.83c-1.08-1.59-3.68-.09-2.59,1.51a25.21,25.21,0,0,0,15.33,10.78c1.41.31,2.82.41,4.25.59a10.13,10.13,0,0,1,7.75,4.79c1.77,2.56,3.43,4.86,6.08,6.59,5.64,3.7,12.82,4.13,19.35,3.83,4.07-.18,8.12-.64,12.19-.55,5.76.14,9.74,2.17,14.91,4.24,7,2.77,15.73-.66,22.85-1.37,8.73-.87,17.52-1.06,26.3-1.29,16.43-.42,33.33-.86,49-6.39,7.56-2.67,14.07-7.08,21.27-10.5,7-3.31,15.24-1.82,20.89-7.54,11.78-11.9,21.11-27.37,28.19-42.42,1.8-3.82,3.3-7.79,5.27-11.52,2.35-4.47,5.59-7.32,9.2-10.67,4.81-4.45,6.8-10.36,6.35-16.86-.68-9.8-8.28-27.77-21.12-23.27-4.95,1.73-11.24,8.3-15.43,1.22-2-3.43-1.34-7.92-2.85-11.55-2.46-5.91-9.05-7.35-14.77-5.76-4.22,1.17-7.88,3.71-11.82,5.55a37.87,37.87,0,0,1-16.23,3.88c-9.57-.08-17-6.8-26.3-7.93-1.91-.24-1.9,2.77,0,3Z"/><path class="cls-8" d="M268.45,170.37c4-4.6,7.89-8.91,13.73-11.07,4.43-1.65,8.66-2.7,12.58-5.47A30.93,30.93,0,0,0,307.2,134c.34-1.89-2.55-2.7-2.89-.8a27.84,27.84,0,0,1-17,21.23c-3.92,1.54-8,2.31-11.56,4.66s-6.59,5.83-9.44,9.14c-1.25,1.46.86,3.59,2.12,2.12Z"/><path class="cls-8" d="M307.46,148.31c-1.21,3.77-4.74,6-7.53,8.56q-3.75,3.45-7.14,7.27a106.58,106.58,0,0,0-11.25,15.36c-1,1.66,1.58,3.16,2.59,1.52a101.52,101.52,0,0,1,14.26-18.49c4.11-4.17,10.1-7.62,12-13.42.59-1.84-2.3-2.63-2.89-.8Z"/><path class="cls-8" d="M266.54,182l-8.12,10.46c-2.6,3.35-5.18,8-8.9,10.19a1.5,1.5,0,0,0,1.51,2.59c3.68-2.15,6-6.13,8.55-9.42l9.08-11.7c1.17-1.51-.94-3.65-2.12-2.12Z"/><path class="cls-8" d="M246.23,124.74a27,27,0,0,0,20.9-7.63c1.39-1.35-.73-3.47-2.13-2.12a24,24,0,0,1-18.77,6.75c-1.93-.14-1.92,2.86,0,3Z"/><path class="cls-8" d="M262.3,130.35c5.49,1.76,10.59,7.88,16.45,3.32,1.53-1.18-.61-3.29-2.12-2.12-3.91,3-9.8-2.9-13.53-4.09-1.85-.59-2.63,2.31-.8,2.89Z"/><path class="cls-8" d="M277.18,124.21a5.2,5.2,0,0,1,1.7-3.85c1.4-1.32-.72-3.44-2.13-2.12a8.21,8.21,0,0,0-2.57,6,1.5,1.5,0,0,0,3,0Z"/><path class="cls-8" d="M255.68,151.4a6.81,6.81,0,0,0,5.71-2.93c1.4-1.75,3.4-6.88,6.42-5.05a1.5,1.5,0,0,0,1.52-2.59,5.45,5.45,0,0,0-6.3.57c-2.51,1.94-3.67,7.16-7.35,7-1.93-.08-1.92,2.92,0,3Z"/><path class="cls-8" d="M253.6,173.78c2.43-.33,3.92-2.46,5.41-4.18l6.32-7.28c1.26-1.45-.85-3.58-2.12-2.12l-5.22,6c-1.34,1.55-3,4.38-5.19,4.68-1.9.26-1.09,3.15.8,2.89Z"/><path class="cls-8" d="M272.17,149.79a6.84,6.84,0,0,1,7.74,3.19,1.51,1.51,0,0,0,2.6-1.52,9.89,9.89,0,0,0-11.14-4.56,1.5,1.5,0,0,0,.8,2.89Z"/><path class="cls-8" d="M278.71,194.22c-.43,8.69-5.25,13.17-11.72,18.12-5.68,4.35-9.44,11.39-13.49,17.15-1.11,1.59,1.49,3.09,2.59,1.52,3.09-4.4,6-9.21,9.49-13.26,2.46-2.83,5.81-4.45,8.56-6.94a23.56,23.56,0,0,0,7.57-16.59c.1-1.93-2.9-1.93-3,0Z"/><path class="cls-8" d="M265.58,203.31c-2.8,9.24-10.65,15.2-18.14,20.65-1.55,1.13-.05,3.73,1.51,2.59,8.17-5.94,16.47-12.39,19.52-22.44.56-1.86-2.33-2.65-2.89-.8Z"/><path class="cls-8" d="M245.39,215.65c-4.61,2.07-7.8,5.63-11.67,8.76-5,4.05-11.1,6.32-17,8.82l-35.31,15c-1.78.75-.25,3.33,1.51,2.59l35.32-15c5.22-2.22,10.67-4.24,15.32-7.56s8.11-7.69,13.32-10c1.76-.78.24-3.37-1.51-2.59Z"/><path class="cls-8" d="M195.23,233.16a28.87,28.87,0,0,0,27.19-15.25c.92-1.7-1.67-3.21-2.59-1.51a25.92,25.92,0,0,1-24.6,13.76c-1.93-.11-1.92,2.89,0,3Z"/><path class="cls-8" d="M183.21,230.3c-7-.84-13.15,4.71-19.85,6-8,1.52-16.52,3.18-24.64,3.35-1.93.05-1.93,3.05,0,3,7.4-.16,14.88-1.77,22.18-2.91a43,43,0,0,0,10.36-2.6c4-1.69,7.4-4.38,12-3.83,1.91.23,1.9-2.77,0-3Z"/><path class="cls-8" d="M98.64,239c-3.26,2.11-6.07-2.89-8.26-4.62a12.27,12.27,0,0,0-7.66-2.59c-1.94,0-1.94,3,0,3,5.21.09,6.65,3.8,10.4,6.38a6.19,6.19,0,0,0,7,.42c1.61-1,.11-3.64-1.52-2.59Z"/><path class="cls-8" d="M93.23,233.22a36.2,36.2,0,0,1,15.58,2.48c1.8.71,2.58-2.19.8-2.89a38,38,0,0,0-16.38-2.59c-1.92.11-1.93,3.11,0,3Z"/><path class="cls-8" d="M109.73,239.71a1.5,1.5,0,0,0,0-3,1.5,1.5,0,0,0,0,3Z"/><path class="cls-8" d="M110.23,239.67a118.1,118.1,0,0,0,15.51-.36c1.91-.17,1.92-3.17,0-3a118.1,118.1,0,0,1-15.51.36c-1.93-.08-1.92,2.92,0,3Z"/><path class="cls-8" d="M106.73,247.21h6.5a1.5,1.5,0,0,0,0-3h-6.5a1.5,1.5,0,0,0,0,3Z"/><path class="cls-8" d="M125.69,247.39a17.57,17.57,0,0,1,14.36,3c1.58,1.12,3.08-1.48,1.52-2.59a20.53,20.53,0,0,0-16.68-3.31c-1.88.42-1.09,3.31.8,2.89Z"/><path class="cls-8" d="M165.64,246.69c2.9-.47,5.88.72,8.7-.44,2.25-.94,3.35-3,4.1-5.24.63-1.83-2.27-2.62-2.89-.8-.88,2.59-2.33,3.67-5.1,3.57a28.42,28.42,0,0,0-5.61,0c-1.9.31-1.09,3.2.8,2.9Z"/><path class="cls-8" d="M302.32,168.69c-5.67,1.74-4.84,11.25-3.11,15.45.72,1.76,3.63,1,2.89-.79-.91-2.22-2.5-10.68,1-11.76,1.84-.57,1.05-3.47-.8-2.9Z"/><path class="cls-8" d="M319.47,141.41a7.24,7.24,0,0,0-1.35,11.42c1.43,1.29,3.55-.82,2.12-2.12A4.21,4.21,0,0,1,321,144c1.69-.93.18-3.52-1.52-2.59Z"/><path class="cls-8" d="M314.07,137.57a8.89,8.89,0,0,0-1.69-8c-1.18-1.52-3.29.61-2.12,2.12a5.67,5.67,0,0,1,.91,5.08,1.51,1.51,0,0,0,2.9.8Z"/><path class="cls-8" d="M291.38,136.65c.67,2.95,1.74,9.64-3.24,9.39-1.93-.09-1.93,2.91,0,3a6.5,6.5,0,0,0,6-3.74c1.51-2.94.8-6.39.1-9.44-.43-1.89-3.32-1.09-2.89.79Z"/><path class="cls-8" d="M278.36,140.58a4.88,4.88,0,0,0,5-1.29c1.33-1.4-.79-3.52-2.13-2.12a1.87,1.87,0,0,1-2,.52c-1.84-.58-2.63,2.32-.79,2.89Z"/></g><g id="Layer_6" data-name="Layer 6"><path class="cls-9" d="M39.68,90.93c-12.28,12.54-22.47,28.8-22.59,46.89-.1,15.39,7.4,30.94,21.2,38.39,5.09,2.75,9.64-5,4.54-7.77-11.52-6.22-17.23-19.22-16.71-32,.62-15.17,9.63-28.62,19.92-39.14,4.06-4.14-2.3-10.51-6.36-6.36Z"/><path class="cls-9" d="M52.26,218.5a185.55,185.55,0,0,1,49.33,3.24,228.58,228.58,0,0,1,23.4,6.39c7.15,2.29,14,3.79,21.47,2.49,5.7-1,3.28-9.66-2.39-8.68-7.8,1.35-15.48-2.2-22.78-4.45A186.63,186.63,0,0,0,98.44,212a196.26,196.26,0,0,0-46.18-2.51c-5.75.36-5.79,9.37,0,9Z"/><path class="cls-9" d="M152.55,87.78c14.27,2,27.46,13.51,37,23.62a108.13,108.13,0,0,1,23,37.24c2,5.39,10.67,3.06,8.68-2.4A119,119,0,0,0,196,105c-10.53-11.12-25.34-23.76-41-25.93-5.66-.79-8.11,7.88-2.39,8.67Z"/><path class="cls-9" d="M236.35,136.21l-.22,22.4c-.07,6.71.32,13.63-.47,20.3-.76,6.4-3.43,10.61-9.07,13.73-5.06,2.8-10.23,4.89-14.46,9s2.19,10.38,6.36,6.36c4.64-4.47,11.12-6.11,16.29-9.85a23.39,23.39,0,0,0,9.29-15c1.34-7.07,1-14.43,1-21.58l.25-25.33c.06-5.8-8.94-5.8-9,0Z"/><path class="cls-9" d="M176.89,199.86c7.22-4.52,14.46-9.28,19.27-16.49,4.93-7.39,6.48-16.38,7.84-25,.9-5.67-7.78-8.11-8.68-2.4-1.15,7.3-2.24,15-6.07,21.47s-10.57,10.67-16.9,14.63c-4.9,3.07-.39,10.86,4.54,7.77Z"/><path class="cls-9" d="M78.23,79.8a205.61,205.61,0,0,1,23.29.22c6.83.58,15.24,1.35,19.93,7,3.72,4.44,10.06-2,6.36-6.37-5.21-6.23-13.39-8-21.07-9-9.46-1.28-19-1.07-28.51-.8-5.77.16-5.8,9.16,0,9Z"/><path class="cls-9" d="M61.7,106.85c-4.59,7.52-6.37,16-7.2,24.65-.88,9.16-1.61,18.74-.21,27.88C57,177,71.18,188,84.93,197.61c4.75,3.33,9.26-4.47,4.54-7.77-12-8.36-24.71-17.82-26.56-33.4-.88-7.39-.2-15.09.37-22.48.61-7.93,2-15.69,6.19-22.57,3-5-4.76-9.48-7.77-4.54Z"/><path class="cls-9" d="M127.15,193.66a467.84,467.84,0,0,0,47.35,18c5.53,1.76,7.9-6.93,2.39-8.68a447.5,447.5,0,0,1-45.2-17.08c-5.25-2.32-9.83,5.44-4.54,7.77Z"/><path class="cls-9" d="M134.07,211.28a463.44,463.44,0,0,0,56.66,5c5.79.15,5.79-8.85,0-9a444,444,0,0,1-54.26-4.71c-5.67-.85-8.11,7.82-2.4,8.68Z"/><path class="cls-9" d="M214.55,163.2c.51,9.62,1.22,20.56-5.68,28.24-3.86,4.29,2.49,10.68,6.37,6.36,8.7-9.68,9-22.24,8.31-34.6-.3-5.76-9.3-5.79-9,0Z"/><path class="cls-9" d="M25.85,184.72c5.88,12.91,18.25,15.7,30.78,19.12,5.6,1.52,8-7.16,2.39-8.68-10.25-2.79-20.56-4.35-25.4-15-2.4-5.26-10.15-.69-7.77,4.54Z"/><path class="cls-9" d="M93.73,211.22a190.85,190.85,0,0,1,45.75,3.57c5.66,1.15,8.08-7.52,2.39-8.67a200,200,0,0,0-48.14-3.9c-5.77.23-5.8,9.23,0,9Z"/><path class="cls-10" d="M36.26,135.67c.42,20.47-3.22,51.48,22.9,58,5.62,1.41,8-7.27,2.39-8.68-20.82-5.23-16-33.57-16.29-49.36-.11-5.78-9.11-5.8-9,0Z"/><path class="cls-10" d="M12.09,159.18c-1,12.9,5.41,24.16,13.33,33.81,7,8.56,15,18.77,26.79,19.79,5.77.49,5.74-8.51,0-9-8.42-.73-15.49-11.13-20.43-17.16-6.45-7.88-11.51-17-10.69-27.44.45-5.77-8.55-5.74-9,0Z"/><path class="cls-10" d="M90.74,70.89c11.61-.67,22.41-.71,32.56,5.69,8.24,5.2,15.38,11.65,24.79,14.76,5.51,1.82,7.87-6.87,2.39-8.68-10-3.31-17.39-11.39-26.64-16.17-10.38-5.36-21.72-5.26-33.1-4.6-5.75.33-5.79,9.34,0,9Z"/><path class="cls-10" d="M227.12,131.2c.5,11.58,5.42,23.52,8.49,34.64,1.54,5.58,10.23,3.21,8.68-2.39l-4.37-15.81c-1.47-5.35-3.56-10.88-3.8-16.44-.25-5.77-9.25-5.8-9,0Z"/><path class="cls-10" d="M236.73,190.68c-.2,8.06-10,10.1-16.29,11-5.71.83-3.28,9.51,2.4,8.68,10.88-1.59,22.57-7.17,22.89-19.7.15-5.79-8.85-5.79-9,0Z"/><path class="cls-10" d="M168.22,230.49a65.19,65.19,0,0,0,36.4-13.24c4.53-3.48.06-11.3-4.54-7.78a56.9,56.9,0,0,1-31.86,12c-5.76.31-5.8,9.31,0,9Z"/><path class="cls-10" d="M217.43,123.74A69.91,69.91,0,0,0,219.09,149c1.4,5.62,10.08,3.24,8.68-2.39a63,63,0,0,1-1.34-22.85c.69-5.74-8.32-5.7-9,0Z"/><path class="cls-10" d="M76.74,78.2C72.5,78,69.23,79.92,66,82.44c-3.7,2.89-8,5.71-11.08,9.3-2.6,3.07-3.68,6.73-4.54,10.59-1.24,5.54-2.4,11.1-3.59,16.65s7.45,8.06,8.68,2.39c1.48-6.89,2.08-15.17,5-21.62,1.33-3,4.17-4.78,6.64-6.75,2.62-2.09,6.08-6,9.66-5.8,5.79.32,5.77-8.69,0-9Z"/><path class="cls-10" d="M73.64,208c29.31.32,55.45,19,85.27,14,5.7-1,3.28-9.62-2.39-8.68-14.26,2.36-28.36-1.81-41.88-5.93s-26.85-8.28-41-8.43c-5.79-.06-5.79,8.94,0,9Z"/><path class="cls-10" d="M173.11,194.75q10.75-7.62,22-14.48c4.94-3,.42-10.8-4.54-7.77q-11.25,6.85-22,14.47c-4.69,3.33-.2,11.13,4.54,7.78Z"/><path class="cls-10" d="M76.06,169c9.86,6.36,19.86,12.55,29.55,19.16,4.32,3,8.2,6.69,12.69,9.38a25.69,25.69,0,0,0,13.47,3.29c5.79,0,5.8-9,0-9-9.83,0-16.93-8.39-24.72-13.51-8.76-5.77-17.63-11.4-26.44-17.1-4.88-3.15-9.4,4.64-4.55,7.78Z"/><path class="cls-10" d="M179.23,205.61a275.79,275.79,0,0,0,33-.54c5.74-.43,5.78-9.44,0-9a275.79,275.79,0,0,1-33,.54c-5.79-.25-5.77,8.75,0,9Z"/><path class="cls-10" d="M111.78,135.11c16.46-1,33.46-2.14,49.51,2.48,15,4.31,28,13.39,42.29,19.37,5.34,2.24,7.67-6.47,2.4-8.68-14.88-6.23-28.3-15.73-44-19.85-16.36-4.27-33.45-3.34-50.15-2.32-5.76.35-5.79,9.35,0,9Z"/><path class="cls-10" d="M78.13,125.23c.23-3.27,7.07-6.58,9.54-7.92a42.77,42.77,0,0,1,11.78-4.13c5.66-1.19,3.26-9.87-2.4-8.68-10,2.08-27.09,8.79-27.92,20.73-.4,5.78,8.6,5.76,9,0Z"/><path class="cls-10" d="M156.23,106.77c11.9-.49,22.25.48,31.59,8.56,8.59,7.45,14.49,17.34,21.35,26.28,3.48,4.53,11.3,0,7.77-4.54-7.91-10.31-14.68-21.81-25-30-10.72-8.44-22.42-9.88-35.7-9.34-5.77.24-5.8,9.24,0,9Z"/><path class="cls-11" d="M39.9,107.7c-.48,7.74-4.65,15.32-6.86,22.68a91.8,91.8,0,0,0-4,22.82c-.23,5.79,8.78,5.78,9,0,.33-8.23,2.27-16.14,4.83-23.95,2.33-7.12,5.6-14,6.07-21.55.36-5.78-8.64-5.76-9,0Z"/><path class="cls-11" d="M139.09,76c4.61,1.34,7.18,5.29,9.64,9.14a63,63,0,0,0,8.1,10.68c6.5,6.58,14.61,11.29,22.57,15.85,5,2.88,9.57-4.89,4.54-7.77-8.78-5-18.15-10.24-24.3-18.53-5.35-7.2-8.83-15.34-18.15-18-5.58-1.62-8,7.06-2.4,8.67Z"/><path class="cls-11" d="M212.94,122.88c6.27,13.34,5.29,28.51,4.41,42.83-.36,5.78,8.64,5.76,9,0,1-16.15,1.4-32.4-5.64-47.37-2.46-5.24-10.23-.68-7.77,4.54Z"/><path class="cls-11" d="M229.72,176.45c1.09,5.18-2.1,9.87-6.77,11.85-2.25,1-2.71,4.24-1.61,6.16,1.32,2.33,3.93,2.56,6.15,1.61,8.51-3.61,12.76-13.2,10.91-22-1.19-5.66-9.86-3.26-8.68,2.4Z"/><path class="cls-11" d="M65.52,171a287.16,287.16,0,0,0,40.37,22.26c5.23,2.36,9.81-5.39,4.54-7.77a288.18,288.18,0,0,1-40.37-22.26c-4.84-3.2-9.36,4.59-4.54,7.77Z"/><path class="cls-11" d="M71.54,135.67A163.54,163.54,0,0,1,108.92,122c5.64-1.32,3.25-10-2.39-8.68A173.43,173.43,0,0,0,67,127.9c-5.16,2.64-.61,10.41,4.54,7.77Z"/><path class="cls-11" d="M168.65,125.33c22.5-.5,39,16.49,53.39,31.59,4,4.19,10.36-2.18,6.36-6.37-16.11-16.9-34.71-34.77-59.75-34.22-5.78.12-5.8,9.12,0,9Z"/><path class="cls-11" d="M127,186.61a236,236,0,0,0,31.52,7.94c5.67,1,8.1-7.65,2.39-8.68a237.9,237.9,0,0,1-31.52-7.93c-5.52-1.8-7.88,6.88-2.39,8.67Z"/><path class="cls-11" d="M79.24,223.43q20.55,1,41,3.59c5.73.72,5.68-8.29,0-9q-20.4-2.57-40.95-3.59c-5.79-.29-5.77,8.71,0,9Z"/><path class="cls-11" d="M167.23,218.16a103.37,103.37,0,0,0,13.52-.23c5.73-.46,5.78-9.46,0-9a103.37,103.37,0,0,1-13.52.23c-5.79-.28-5.77,8.72,0,9Z"/><path class="cls-11" d="M203.33,179.72l-.47,5c-.23,2.35,2.22,4.6,4.5,4.5a4.63,4.63,0,0,0,4.5-4.5l.47-5c.22-2.35-2.23-4.6-4.5-4.5a4.62,4.62,0,0,0-4.5,4.5Z"/><path class="cls-11" d="M52.76,92.79c7.16-3.37,14.38-6.62,21.47-10.13C79.34,80.13,84,77,86.76,71.83s-5-9.65-7.77-4.54C76.45,72,71.51,74,66.9,76.22L48.22,85c-5.24,2.47-.67,10.23,4.54,7.77Z"/><path class="cls-11" d="M100.19,85.28c11.85,0,26.18-2.43,35.71,6.36,4.26,3.92,10.64-2.43,6.37-6.36-11.72-10.81-27.35-9-42.08-9-5.79,0-5.8,9,0,9Z"/></g><g id="Layer_7" data-name="Layer 7"><circle class="cls-12" cx="115.73" cy="163.21" r="3.5"/><circle class="cls-12" cx="126.73" cy="167.21" r="3.5"/><circle class="cls-12" cx="123.73" cy="172.21" r="3.5"/><circle class="cls-12" cx="123.73" cy="178.21" r="3.5"/><circle class="cls-12" cx="112.73" cy="174.21" r="3.5"/><circle class="cls-12" cx="120.73" cy="166.21" r="3.5"/><circle class="cls-12" cx="118.73" cy="174.21" r="3.5"/><circle class="cls-12" cx="116.73" cy="169.21" r="3.5"/><circle class="cls-12" cx="110.73" cy="169.21" r="3.5"/><circle class="cls-12" cx="131.73" cy="163.21" r="3.5"/><circle class="cls-12" cx="142.73" cy="167.21" r="3.5"/><circle class="cls-12" cx="139.73" cy="172.21" r="3.5"/><circle class="cls-12" cx="139.73" cy="178.21" r="3.5"/><circle class="cls-12" cx="128.73" cy="174.21" r="3.5"/><circle class="cls-12" cx="136.73" cy="166.21" r="3.5"/><circle class="cls-12" cx="134.73" cy="174.21" r="3.5"/><circle class="cls-12" cx="132.73" cy="169.21" r="3.5"/><circle class="cls-12" cx="126.73" cy="169.21" r="3.5"/><circle class="cls-12" cx="125.29" cy="149.05" r="3.5"/><circle class="cls-12" cx="131.1" cy="159.21" r="3.5"/><circle class="cls-12" cx="125.58" cy="161.08" r="3.5"/><circle class="cls-12" cx="121.7" cy="165.66" r="3.5"/><circle class="cls-12" cx="115.89" cy="155.5" r="3.5"/><circle class="cls-12" cx="127.16" cy="154.57" r="3.5"/><circle class="cls-12" cx="120.47" cy="159.38" r="3.5"/><circle class="cls-12" cx="122.17" cy="154.27" r="3.5"/><circle class="cls-12" cx="117.6" cy="150.39" r="3.5"/><circle class="cls-12" cx="149.73" cy="166.21" r="3.5"/><circle class="cls-12" cx="160.73" cy="170.21" r="3.5"/><circle class="cls-12" cx="157.73" cy="175.21" r="3.5"/><circle class="cls-12" cx="157.73" cy="181.21" r="3.5"/><circle class="cls-12" cx="146.73" cy="177.21" r="3.5"/><circle class="cls-12" cx="154.73" cy="169.21" r="3.5"/><circle class="cls-12" cx="152.73" cy="177.21" r="3.5"/><circle class="cls-12" cx="150.73" cy="172.21" r="3.5"/><circle class="cls-12" cx="144.73" cy="172.21" r="3.5"/><circle class="cls-12" cx="166.73" cy="165.21" r="3.5"/><circle class="cls-12" cx="177.73" cy="169.21" r="3.5"/><circle class="cls-12" cx="174.73" cy="174.21" r="3.5"/><circle class="cls-12" cx="174.73" cy="180.21" r="3.5"/><circle class="cls-12" cx="163.73" cy="176.21" r="3.5"/><circle class="cls-12" cx="171.73" cy="168.21" r="3.5"/><circle class="cls-12" cx="169.73" cy="176.21" r="3.5"/><circle class="cls-12" cx="167.73" cy="171.21" r="3.5"/><circle class="cls-12" cx="161.73" cy="171.21" r="3.5"/><circle class="cls-12" cx="154.73" cy="153.21" r="3.5"/><circle class="cls-12" cx="165.73" cy="157.21" r="3.5"/><circle class="cls-12" cx="162.73" cy="162.21" r="3.5"/><circle class="cls-12" cx="162.73" cy="168.21" r="3.5"/><circle class="cls-12" cx="151.73" cy="164.21" r="3.5"/><circle class="cls-12" cx="159.73" cy="156.21" r="3.5"/><circle class="cls-12" cx="157.73" cy="164.21" r="3.5"/><circle class="cls-12" cx="155.73" cy="159.21" r="3.5"/><circle class="cls-12" cx="149.73" cy="159.21" r="3.5"/><circle class="cls-12" cx="135.85" cy="158.5" r="3.5"/><circle class="cls-12" cx="141.52" cy="148.26" r="3.5"/><circle class="cls-12" cx="145.99" cy="152" r="3.5"/><circle class="cls-12" cx="151.92" cy="152.94" r="3.5"/><circle class="cls-12" cx="146.25" cy="163.18" r="3.5"/><circle class="cls-12" cx="139.6" cy="154.03" r="3.5"/><circle class="cls-12" cx="147.19" cy="157.25" r="3.5"/><circle class="cls-12" cx="141.94" cy="158.45" r="3.5"/><circle class="cls-12" cx="141" cy="164.38" r="3.5"/><circle class="cls-12" cx="126.73" cy="140.21" r="3.5"/><circle class="cls-12" cx="137.73" cy="144.21" r="3.5"/><circle class="cls-12" cx="134.73" cy="149.21" r="3.5"/><circle class="cls-12" cx="134.73" cy="155.21" r="3.5"/><circle class="cls-12" cx="123.73" cy="151.21" r="3.5"/><circle class="cls-12" cx="131.73" cy="143.21" r="3.5"/><circle class="cls-12" cx="129.73" cy="151.21" r="3.5"/><circle class="cls-12" cx="127.73" cy="146.21" r="3.5"/><circle class="cls-12" cx="121.73" cy="146.21" r="3.5"/><circle class="cls-12" cx="170.73" cy="153.21" r="3.5"/><circle class="cls-12" cx="181.73" cy="157.21" r="3.5"/><circle class="cls-12" cx="178.73" cy="162.21" r="3.5"/><circle class="cls-12" cx="178.73" cy="168.21" r="3.5"/><circle class="cls-12" cx="167.73" cy="164.21" r="3.5"/><circle class="cls-12" cx="175.73" cy="156.21" r="3.5"/><circle class="cls-12" cx="173.73" cy="164.21" r="3.5"/><circle class="cls-12" cx="171.73" cy="159.21" r="3.5"/><circle class="cls-12" cx="165.73" cy="159.21" r="3.5"/><circle class="cls-12" cx="139.73" cy="152.21" r="3.5"/><circle class="cls-12" cx="150.73" cy="156.21" r="3.5"/><circle class="cls-12" cx="147.73" cy="161.21" r="3.5"/><circle class="cls-12" cx="147.73" cy="167.21" r="3.5"/><circle class="cls-12" cx="136.73" cy="163.21" r="3.5"/><circle class="cls-12" cx="144.73" cy="155.21" r="3.5"/><circle class="cls-12" cx="142.73" cy="163.21" r="3.5"/><circle class="cls-12" cx="140.73" cy="158.21" r="3.5"/><circle class="cls-12" cx="134.73" cy="158.21" r="3.5"/><circle class="cls-12" cx="155.73" cy="152.21" r="3.5"/><circle class="cls-12" cx="166.73" cy="156.21" r="3.5"/><circle class="cls-12" cx="163.73" cy="161.21" r="3.5"/><circle class="cls-12" cx="163.73" cy="167.21" r="3.5"/><circle class="cls-12" cx="152.73" cy="163.21" r="3.5"/><circle class="cls-12" cx="160.73" cy="155.21" r="3.5"/><circle class="cls-12" cx="158.73" cy="163.21" r="3.5"/><circle class="cls-12" cx="156.73" cy="158.21" r="3.5"/><circle class="cls-12" cx="150.73" cy="158.21" r="3.5"/><circle class="cls-12" cx="149.29" cy="138.05" r="3.5"/><circle class="cls-12" cx="155.1" cy="148.21" r="3.5"/><circle class="cls-12" cx="149.58" cy="150.08" r="3.5"/><circle class="cls-12" cx="145.7" cy="154.66" r="3.5"/><circle class="cls-12" cx="139.89" cy="144.5" r="3.5"/><circle class="cls-12" cx="151.16" cy="143.57" r="3.5"/><circle class="cls-12" cx="144.47" cy="148.38" r="3.5"/><circle class="cls-12" cx="146.17" cy="143.27" r="3.5"/><circle class="cls-12" cx="141.6" cy="139.39" r="3.5"/><circle class="cls-12" cx="173.73" cy="155.21" r="3.5"/><circle class="cls-12" cx="184.73" cy="159.21" r="3.5"/><circle class="cls-12" cx="181.73" cy="164.21" r="3.5"/><circle class="cls-12" cx="181.73" cy="170.21" r="3.5"/><circle class="cls-12" cx="170.73" cy="166.21" r="3.5"/><circle class="cls-12" cx="178.73" cy="158.21" r="3.5"/><circle class="cls-12" cx="176.73" cy="166.21" r="3.5"/><circle class="cls-12" cx="174.73" cy="161.21" r="3.5"/><circle class="cls-12" cx="168.73" cy="161.21" r="3.5"/><circle class="cls-12" cx="190.73" cy="154.21" r="3.5"/><circle class="cls-12" cx="201.73" cy="158.21" r="3.5"/><circle class="cls-12" cx="198.73" cy="163.21" r="3.5"/><circle class="cls-12" cx="198.73" cy="169.21" r="3.5"/><circle class="cls-12" cx="187.73" cy="165.21" r="3.5"/><circle class="cls-12" cx="195.73" cy="157.21" r="3.5"/><circle class="cls-12" cx="193.73" cy="165.21" r="3.5"/><circle class="cls-12" cx="191.73" cy="160.21" r="3.5"/><circle class="cls-12" cx="185.73" cy="160.21" r="3.5"/><circle class="cls-12" cx="178.73" cy="142.21" r="3.5"/><circle class="cls-12" cx="189.73" cy="146.21" r="3.5"/><circle class="cls-12" cx="186.73" cy="151.21" r="3.5"/><circle class="cls-12" cx="186.73" cy="157.21" r="3.5"/><circle class="cls-12" cx="175.73" cy="153.21" r="3.5"/><circle class="cls-12" cx="183.73" cy="145.21" r="3.5"/><circle class="cls-12" cx="181.73" cy="153.21" r="3.5"/><circle class="cls-12" cx="179.73" cy="148.21" r="3.5"/><circle class="cls-12" cx="173.73" cy="148.21" r="3.5"/><circle class="cls-12" cx="159.85" cy="147.5" r="3.5"/><circle class="cls-12" cx="165.52" cy="137.26" r="3.5"/><circle class="cls-12" cx="169.99" cy="141" r="3.5"/><circle class="cls-12" cx="175.92" cy="141.94" r="3.5"/><circle class="cls-12" cx="170.25" cy="152.18" r="3.5"/><circle class="cls-12" cx="163.6" cy="143.03" r="3.5"/><circle class="cls-12" cx="171.19" cy="146.25" r="3.5"/><circle class="cls-12" cx="165.94" cy="147.45" r="3.5"/><circle class="cls-12" cx="165" cy="153.38" r="3.5"/><circle class="cls-12" cx="150.73" cy="129.21" r="3.5"/><circle class="cls-12" cx="161.73" cy="133.21" r="3.5"/><circle class="cls-12" cx="158.73" cy="138.21" r="3.5"/><circle class="cls-12" cx="158.73" cy="144.21" r="3.5"/><circle class="cls-12" cx="147.73" cy="140.21" r="3.5"/><circle class="cls-12" cx="155.73" cy="132.21" r="3.5"/><circle class="cls-12" cx="153.73" cy="140.21" r="3.5"/><circle class="cls-12" cx="151.73" cy="135.21" r="3.5"/><circle class="cls-12" cx="145.73" cy="135.21" r="3.5"/><circle class="cls-12" cx="194.73" cy="142.21" r="3.5"/><circle class="cls-12" cx="205.73" cy="146.21" r="3.5"/><circle class="cls-12" cx="202.73" cy="151.21" r="3.5"/><circle class="cls-12" cx="202.73" cy="157.21" r="3.5"/><circle class="cls-12" cx="191.73" cy="153.21" r="3.5"/><circle class="cls-12" cx="199.73" cy="145.21" r="3.5"/><circle class="cls-12" cx="197.73" cy="153.21" r="3.5"/><circle class="cls-12" cx="195.73" cy="148.21" r="3.5"/><circle class="cls-12" cx="189.73" cy="148.21" r="3.5"/><circle class="cls-12" cx="99.85" cy="168.28" r="3.5"/><circle class="cls-12" cx="109.86" cy="162.22" r="3.5"/><circle class="cls-12" cx="111.88" cy="167.69" r="3.5"/><circle class="cls-12" cx="116.55" cy="171.45" r="3.5"/><circle class="cls-12" cx="106.54" cy="177.51" r="3.5"/><circle class="cls-12" cx="105.32" cy="166.26" r="3.5"/><circle class="cls-12" cx="110.3" cy="172.84" r="3.5"/><circle class="cls-12" cx="105.15" cy="171.26" r="3.5"/><circle class="cls-12" cx="101.39" cy="175.94" r="3.5"/><circle class="cls-12" cx="109.87" cy="155.81" r="3.5"/><circle class="cls-12" cx="119.88" cy="149.75" r="3.5"/><circle class="cls-12" cx="121.9" cy="155.22" r="3.5"/><circle class="cls-12" cx="126.58" cy="158.98" r="3.5"/><circle class="cls-12" cx="116.57" cy="165.04" r="3.5"/><circle class="cls-12" cx="115.35" cy="153.8" r="3.5"/><circle class="cls-12" cx="120.33" cy="160.37" r="3.5"/><circle class="cls-12" cx="115.18" cy="158.79" r="3.5"/><circle class="cls-12" cx="111.42" cy="163.47" r="3.5"/><circle class="cls-12" cx="94.8" cy="151.96" r="3.5"/><circle class="cls-12" cx="106.36" cy="153.8" r="3.5"/><circle class="cls-12" cx="104.36" cy="159.28" r="3.5"/><circle class="cls-12" cx="105.5" cy="165.17" r="3.5"/><circle class="cls-12" cx="93.94" cy="163.33" r="3.5"/><circle class="cls-12" cx="100.28" cy="153.96" r="3.5"/><circle class="cls-12" cx="99.83" cy="162.19" r="3.5"/><circle class="cls-12" cx="96.92" cy="157.66" r="3.5"/><circle class="cls-12" cx="91.03" cy="158.8" r="3.5"/><circle class="cls-12" cx="123.49" cy="143.66" r="3.5"/><circle class="cls-12" cx="133.5" cy="137.6" r="3.5"/><circle class="cls-12" cx="135.52" cy="143.07" r="3.5"/><circle class="cls-12" cx="140.19" cy="146.83" r="3.5"/><circle class="cls-12" cx="130.18" cy="152.9" r="3.5"/><circle class="cls-12" cx="128.96" cy="141.65" r="3.5"/><circle class="cls-12" cx="133.94" cy="148.22" r="3.5"/><circle class="cls-12" cx="128.79" cy="146.65" r="3.5"/><circle class="cls-12" cx="125.03" cy="151.32" r="3.5"/><circle class="cls-12" cx="133.37" cy="129.79" r="3.5"/><circle class="cls-12" cx="143.38" cy="123.72" r="3.5"/><circle class="cls-12" cx="145.39" cy="129.19" r="3.5"/><circle class="cls-12" cx="150.07" cy="132.95" r="3.5"/><circle class="cls-12" cx="140.06" cy="139.02" r="3.5"/><circle class="cls-12" cx="138.84" cy="127.77" r="3.5"/><circle class="cls-12" cx="143.82" cy="134.34" r="3.5"/><circle class="cls-12" cx="138.67" cy="132.77" r="3.5"/><circle class="cls-12" cx="134.91" cy="137.45" r="3.5"/><circle class="cls-12" cx="116.49" cy="131.62" r="3.5"/><circle class="cls-12" cx="126.5" cy="125.56" r="3.5"/><circle class="cls-12" cx="128.52" cy="131.03" r="3.5"/><circle class="cls-12" cx="133.2" cy="134.79" r="3.5"/><circle class="cls-12" cx="123.19" cy="140.85" r="3.5"/><circle class="cls-12" cx="121.96" cy="129.61" r="3.5"/><circle class="cls-12" cx="126.95" cy="136.18" r="3.5"/><circle class="cls-12" cx="121.8" cy="134.6" r="3.5"/><circle class="cls-12" cx="118.04" cy="139.28" r="3.5"/><circle class="cls-12" cx="108.79" cy="149.65" r="3.5"/><circle class="cls-12" cx="104.36" cy="138.81" r="3.5"/><circle class="cls-12" cx="110.08" cy="137.68" r="3.5"/><circle class="cls-12" cx="114.52" cy="133.64" r="3.5"/><circle class="cls-12" cx="118.95" cy="144.48" r="3.5"/><circle class="cls-12" cx="107.65" cy="143.93" r="3.5"/><circle class="cls-12" cx="114.92" cy="140.04" r="3.5"/><circle class="cls-12" cx="112.56" cy="144.88" r="3.5"/><circle class="cls-12" cx="116.59" cy="149.32" r="3.5"/><circle class="cls-12" cx="88.82" cy="145.3" r="3.5"/><circle class="cls-12" cx="98.83" cy="139.23" r="3.5"/><circle class="cls-12" cx="100.84" cy="144.7" r="3.5"/><circle class="cls-12" cx="105.52" cy="148.46" r="3.5"/><circle class="cls-12" cx="95.51" cy="154.53" r="3.5"/><circle class="cls-12" cx="94.29" cy="143.28" r="3.5"/><circle class="cls-12" cx="99.27" cy="149.85" r="3.5"/><circle class="cls-12" cx="94.12" cy="148.28" r="3.5"/><circle class="cls-12" cx="90.36" cy="152.95" r="3.5"/><circle class="cls-12" cx="126.52" cy="119.15" r="3.5"/><circle class="cls-12" cx="136.53" cy="113.09" r="3.5"/><circle class="cls-12" cx="138.55" cy="118.56" r="3.5"/><circle class="cls-12" cx="143.22" cy="122.32" r="3.5"/><circle class="cls-12" cx="133.21" cy="128.38" r="3.5"/><circle class="cls-12" cx="131.99" cy="117.14" r="3.5"/><circle class="cls-12" cx="136.97" cy="123.71" r="3.5"/><circle class="cls-12" cx="131.82" cy="122.13" r="3.5"/><circle class="cls-12" cx="128.06" cy="126.81" r="3.5"/><circle class="cls-12" cx="143.73" cy="125.21" r="3.5"/><circle class="cls-12" cx="154.73" cy="129.21" r="3.5"/><circle class="cls-12" cx="151.73" cy="134.21" r="3.5"/><circle class="cls-12" cx="151.73" cy="140.21" r="3.5"/><circle class="cls-12" cx="140.73" cy="136.21" r="3.5"/><circle class="cls-12" cx="148.73" cy="128.21" r="3.5"/><circle class="cls-12" cx="146.73" cy="136.21" r="3.5"/><circle class="cls-12" cx="144.73" cy="131.21" r="3.5"/><circle class="cls-12" cx="138.73" cy="131.21" r="3.5"/><circle class="cls-12" cx="159.73" cy="125.21" r="3.5"/><circle class="cls-12" cx="170.73" cy="129.21" r="3.5"/><circle class="cls-12" cx="167.73" cy="134.21" r="3.5"/><circle class="cls-12" cx="167.73" cy="140.21" r="3.5"/><circle class="cls-12" cx="156.73" cy="136.21" r="3.5"/><circle class="cls-12" cx="164.73" cy="128.21" r="3.5"/><circle class="cls-12" cx="162.73" cy="136.21" r="3.5"/><circle class="cls-12" cx="160.73" cy="131.21" r="3.5"/><circle class="cls-12" cx="154.73" cy="131.21" r="3.5"/><circle class="cls-12" cx="153.29" cy="111.05" r="3.5"/><circle class="cls-12" cx="159.1" cy="121.21" r="3.5"/><circle class="cls-12" cx="153.58" cy="123.08" r="3.5"/><circle class="cls-12" cx="149.7" cy="127.66" r="3.5"/><circle class="cls-12" cx="143.89" cy="117.5" r="3.5"/><circle class="cls-12" cx="155.16" cy="116.57" r="3.5"/><circle class="cls-12" cx="148.47" cy="121.38" r="3.5"/><circle class="cls-12" cx="150.17" cy="116.27" r="3.5"/><circle class="cls-12" cx="145.6" cy="112.39" r="3.5"/><circle class="cls-12" cx="177.73" cy="128.21" r="3.5"/><circle class="cls-12" cx="188.73" cy="132.21" r="3.5"/><circle class="cls-12" cx="185.73" cy="137.21" r="3.5"/><circle class="cls-12" cx="185.73" cy="143.21" r="3.5"/><circle class="cls-12" cx="174.73" cy="139.21" r="3.5"/><circle class="cls-12" cx="182.73" cy="131.21" r="3.5"/><circle class="cls-12" cx="180.73" cy="139.21" r="3.5"/><circle class="cls-12" cx="178.73" cy="134.21" r="3.5"/><circle class="cls-12" cx="172.73" cy="134.21" r="3.5"/><circle class="cls-12" cx="194.73" cy="127.21" r="3.5"/><circle class="cls-12" cx="205.73" cy="131.21" r="3.5"/><circle class="cls-12" cx="202.73" cy="136.21" r="3.5"/><circle class="cls-12" cx="202.73" cy="142.21" r="3.5"/><circle class="cls-12" cx="191.73" cy="138.21" r="3.5"/><circle class="cls-12" cx="199.73" cy="130.21" r="3.5"/><circle class="cls-12" cx="197.73" cy="138.21" r="3.5"/><circle class="cls-12" cx="195.73" cy="133.21" r="3.5"/><circle class="cls-12" cx="189.73" cy="133.21" r="3.5"/><circle class="cls-12" cx="182.73" cy="115.21" r="3.5"/><circle class="cls-12" cx="193.73" cy="119.21" r="3.5"/><circle class="cls-12" cx="190.73" cy="124.21" r="3.5"/><circle class="cls-12" cx="190.73" cy="130.21" r="3.5"/><circle class="cls-12" cx="179.73" cy="126.21" r="3.5"/><circle class="cls-12" cx="187.73" cy="118.21" r="3.5"/><circle class="cls-12" cx="185.73" cy="126.21" r="3.5"/><circle class="cls-12" cx="183.73" cy="121.21" r="3.5"/><circle class="cls-12" cx="177.73" cy="121.21" r="3.5"/><circle class="cls-12" cx="163.85" cy="120.5" r="3.5"/><circle class="cls-12" cx="169.52" cy="110.26" r="3.5"/><circle class="cls-12" cx="173.99" cy="114" r="3.5"/><circle class="cls-12" cx="179.92" cy="114.94" r="3.5"/><circle class="cls-12" cx="174.25" cy="125.18" r="3.5"/><circle class="cls-12" cx="167.6" cy="116.03" r="3.5"/><circle class="cls-12" cx="175.19" cy="119.25" r="3.5"/><circle class="cls-12" cx="169.94" cy="120.45" r="3.5"/><circle class="cls-12" cx="169" cy="126.38" r="3.5"/><circle class="cls-12" cx="154.73" cy="102.21" r="3.5"/><circle class="cls-12" cx="165.73" cy="106.21" r="3.5"/><circle class="cls-12" cx="162.73" cy="111.21" r="3.5"/><circle class="cls-12" cx="162.73" cy="117.21" r="3.5"/><circle class="cls-12" cx="151.73" cy="113.21" r="3.5"/><circle class="cls-12" cx="159.73" cy="105.21" r="3.5"/><circle class="cls-12" cx="157.73" cy="113.21" r="3.5"/><circle class="cls-12" cx="155.73" cy="108.21" r="3.5"/><circle class="cls-12" cx="149.73" cy="108.21" r="3.5"/><circle class="cls-12" cx="198.73" cy="115.21" r="3.5"/><circle class="cls-12" cx="209.73" cy="119.21" r="3.5"/><circle class="cls-12" cx="206.73" cy="124.21" r="3.5"/><circle class="cls-12" cx="206.73" cy="130.21" r="3.5"/><circle class="cls-12" cx="195.73" cy="126.21" r="3.5"/><circle class="cls-12" cx="203.73" cy="118.21" r="3.5"/><circle class="cls-12" cx="201.73" cy="126.21" r="3.5"/><circle class="cls-12" cx="199.73" cy="121.21" r="3.5"/><circle class="cls-12" cx="193.73" cy="121.21" r="3.5"/><circle class="cls-12" cx="97.04" cy="145.03" r="3.5"/><circle class="cls-12" cx="107.06" cy="138.97" r="3.5"/><circle class="cls-12" cx="109.07" cy="144.44" r="3.5"/><circle class="cls-12" cx="113.74" cy="148.21" r="3.5"/><circle class="cls-12" cx="103.73" cy="154.27" r="3.5"/><circle class="cls-12" cx="102.52" cy="143.02" r="3.5"/><circle class="cls-12" cx="107.49" cy="149.59" r="3.5"/><circle class="cls-12" cx="102.34" cy="148.01" r="3.5"/><circle class="cls-12" cx="98.58" cy="152.69" r="3.5"/><circle class="cls-12" cx="107.08" cy="132.57" r="3.5"/><circle class="cls-12" cx="117.1" cy="126.51" r="3.5"/><circle class="cls-12" cx="119.11" cy="131.98" r="3.5"/><circle class="cls-12" cx="123.78" cy="135.75" r="3.5"/><circle class="cls-12" cx="113.76" cy="141.81" r="3.5"/><circle class="cls-12" cx="112.55" cy="130.56" r="3.5"/><circle class="cls-12" cx="117.53" cy="137.13" r="3.5"/><circle class="cls-12" cx="112.38" cy="135.55" r="3.5"/><circle class="cls-12" cx="108.62" cy="140.23" r="3.5"/><circle class="cls-12" cx="92.01" cy="128.7" r="3.5"/><circle class="cls-12" cx="103.57" cy="130.55" r="3.5"/><circle class="cls-12" cx="101.57" cy="136.03" r="3.5"/><circle class="cls-12" cx="102.7" cy="141.92" r="3.5"/><circle class="cls-12" cx="91.14" cy="140.07" r="3.5"/><circle class="cls-12" cx="97.49" cy="130.7" r="3.5"/><circle class="cls-12" cx="97.03" cy="138.94" r="3.5"/><circle class="cls-12" cx="94.13" cy="134.4" r="3.5"/><circle class="cls-12" cx="88.23" cy="135.54" r="3.5"/><circle class="cls-12" cx="120.71" cy="120.43" r="3.5"/><circle class="cls-12" cx="130.72" cy="114.38" r="3.5"/><circle class="cls-12" cx="132.74" cy="119.85" r="3.5"/><circle class="cls-12" cx="137.41" cy="123.61" r="3.5"/><circle class="cls-12" cx="127.39" cy="129.67" r="3.5"/><circle class="cls-12" cx="126.18" cy="118.42" r="3.5"/><circle class="cls-12" cx="131.16" cy="125" r="3.5"/><circle class="cls-12" cx="126.01" cy="123.42" r="3.5"/><circle class="cls-12" cx="122.24" cy="128.09" r="3.5"/><circle class="cls-12" cx="130.59" cy="106.57" r="3.5"/><circle class="cls-12" cx="140.61" cy="100.51" r="3.5"/><circle class="cls-12" cx="142.62" cy="105.98" r="3.5"/><circle class="cls-12" cx="147.29" cy="109.75" r="3.5"/><circle class="cls-12" cx="137.28" cy="115.8" r="3.5"/><circle class="cls-12" cx="136.07" cy="104.55" r="3.5"/><circle class="cls-12" cx="141.04" cy="111.13" r="3.5"/><circle class="cls-12" cx="135.89" cy="109.55" r="3.5"/><circle class="cls-12" cx="132.13" cy="114.22" r="3.5"/><circle class="cls-12" cx="113.72" cy="108.38" r="3.5"/><circle class="cls-12" cx="123.74" cy="102.33" r="3.5"/><circle class="cls-12" cx="125.75" cy="107.8" r="3.5"/><circle class="cls-12" cx="130.42" cy="111.56" r="3.5"/><circle class="cls-12" cx="120.41" cy="117.62" r="3.5"/><circle class="cls-12" cx="119.19" cy="106.37" r="3.5"/><circle class="cls-12" cx="124.17" cy="112.95" r="3.5"/><circle class="cls-12" cx="119.02" cy="111.37" r="3.5"/><circle class="cls-12" cx="115.26" cy="116.04" r="3.5"/><circle class="cls-12" cx="106" cy="126.4" r="3.5"/><circle class="cls-12" cx="101.58" cy="115.57" r="3.5"/><circle class="cls-12" cx="107.3" cy="114.43" r="3.5"/><circle class="cls-12" cx="111.75" cy="110.4" r="3.5"/><circle class="cls-12" cx="116.17" cy="121.24" r="3.5"/><circle class="cls-12" cx="104.87" cy="120.68" r="3.5"/><circle class="cls-12" cx="112.14" cy="116.8" r="3.5"/><circle class="cls-12" cx="109.78" cy="121.63" r="3.5"/><circle class="cls-12" cx="113.8" cy="126.08" r="3.5"/><circle class="cls-12" cx="86.03" cy="122.03" r="3.5"/><circle class="cls-12" cx="96.05" cy="115.98" r="3.5"/><circle class="cls-12" cx="98.06" cy="121.45" r="3.5"/><circle class="cls-12" cx="102.73" cy="125.21" r="3.5"/><circle class="cls-12" cx="92.72" cy="131.27" r="3.5"/><circle class="cls-12" cx="91.51" cy="120.02" r="3.5"/><circle class="cls-12" cx="96.48" cy="126.6" r="3.5"/><circle class="cls-12" cx="91.33" cy="125.02" r="3.5"/><circle class="cls-12" cx="87.57" cy="129.69" r="3.5"/><circle class="cls-12" cx="123.76" cy="95.92" r="3.5"/><circle class="cls-12" cx="133.77" cy="89.87" r="3.5"/><circle class="cls-12" cx="135.79" cy="95.34" r="3.5"/><circle class="cls-12" cx="140.46" cy="99.1" r="3.5"/><circle class="cls-12" cx="130.44" cy="105.16" r="3.5"/><circle class="cls-12" cx="129.23" cy="93.91" r="3.5"/><circle class="cls-12" cx="134.21" cy="100.49" r="3.5"/><circle class="cls-12" cx="129.06" cy="98.91" r="3.5"/><circle class="cls-12" cx="125.29" cy="103.58" r="3.5"/><circle class="cls-12" cx="59.97" cy="139.81" r="3.5"/><circle class="cls-12" cx="67.22" cy="148.99" r="3.5"/><circle class="cls-12" cx="62.04" cy="151.67" r="3.5"/><circle class="cls-12" cx="58.89" cy="156.77" r="3.5"/><circle class="cls-12" cx="51.63" cy="147.59" r="3.5"/><circle class="cls-12" cx="62.64" cy="144.99" r="3.5"/><circle class="cls-12" cx="56.74" cy="150.74" r="3.5"/><circle class="cls-12" cx="57.66" cy="145.44" r="3.5"/><circle class="cls-12" cx="52.56" cy="142.28" r="3.5"/><circle class="cls-12" cx="73.58" cy="148.22" r="3.5"/><circle class="cls-12" cx="80.84" cy="157.4" r="3.5"/><circle class="cls-12" cx="75.66" cy="160.08" r="3.5"/><circle class="cls-12" cx="72.5" cy="165.18" r="3.5"/><circle class="cls-12" cx="65.25" cy="156" r="3.5"/><circle class="cls-12" cx="76.26" cy="153.4" r="3.5"/><circle class="cls-12" cx="70.35" cy="159.15" r="3.5"/><circle class="cls-12" cx="71.28" cy="153.85" r="3.5"/><circle class="cls-12" cx="66.17" cy="150.69" r="3.5"/><circle class="cls-12" cx="75.54" cy="132.78" r="3.5"/><circle class="cls-12" cx="75.14" cy="144.48" r="3.5"/><circle class="cls-12" cx="69.46" cy="143.17" r="3.5"/><circle class="cls-12" cx="63.75" cy="145.03" r="3.5"/><circle class="cls-12" cx="64.15" cy="133.33" r="3.5"/><circle class="cls-12" cx="74.24" cy="138.46" r="3.5"/><circle class="cls-12" cx="66.01" cy="139.04" r="3.5"/><circle class="cls-12" cx="70.14" cy="135.59" r="3.5"/><circle class="cls-12" cx="68.29" cy="129.88" r="3.5"/><circle class="cls-12" cx="87.32" cy="160.23" r="3.5"/><circle class="cls-12" cx="94.57" cy="169.41" r="3.5"/><circle class="cls-12" cx="89.39" cy="172.09" r="3.5"/><circle class="cls-12" cx="86.24" cy="177.19" r="3.5"/><circle class="cls-12" cx="78.98" cy="168.01" r="3.5"/><circle class="cls-12" cx="89.99" cy="165.41" r="3.5"/><circle class="cls-12" cx="84.09" cy="171.16" r="3.5"/><circle class="cls-12" cx="85.02" cy="165.86" r="3.5"/><circle class="cls-12" cx="79.91" cy="162.7" r="3.5"/><circle class="cls-12" cx="102.31" cy="168.31" r="3.5"/><circle class="cls-12" cx="109.56" cy="177.49" r="3.5"/><circle class="cls-12" cx="104.38" cy="180.17" r="3.5"/><circle class="cls-12" cx="101.23" cy="185.27" r="3.5"/><circle class="cls-12" cx="93.97" cy="176.09" r="3.5"/><circle class="cls-12" cx="104.98" cy="173.49" r="3.5"/><circle class="cls-12" cx="99.08" cy="179.24" r="3.5"/><circle class="cls-12" cx="100" cy="173.94" r="3.5"/><circle class="cls-12" cx="94.9" cy="170.79" r="3.5"/><circle class="cls-12" cx="98.4" cy="151.79" r="3.5"/><circle class="cls-12" cx="105.66" cy="160.98" r="3.5"/><circle class="cls-12" cx="100.48" cy="163.65" r="3.5"/><circle class="cls-12" cx="97.33" cy="168.76" r="3.5"/><circle class="cls-12" cx="90.07" cy="159.58" r="3.5"/><circle class="cls-12" cx="101.08" cy="156.97" r="3.5"/><circle class="cls-12" cx="95.17" cy="162.73" r="3.5"/><circle class="cls-12" cx="96.1" cy="157.42" r="3.5"/><circle class="cls-12" cx="91" cy="154.27" r="3.5"/><circle class="cls-12" cx="79.56" cy="146.38" r="3.5"/><circle class="cls-12" cx="89.76" cy="140.64" r="3.5"/><circle class="cls-12" cx="91.6" cy="146.18" r="3.5"/><circle class="cls-12" cx="96.15" cy="150.09" r="3.5"/><circle class="cls-12" cx="85.95" cy="155.82" r="3.5"/><circle class="cls-12" cx="85.1" cy="144.54" r="3.5"/><circle class="cls-12" cx="89.86" cy="151.27" r="3.5"/><circle class="cls-12" cx="84.76" cy="149.53" r="3.5"/><circle class="cls-12" cx="80.85" cy="154.08" r="3.5"/><circle class="cls-12" cx="81.41" cy="126.02" r="3.5"/><circle class="cls-12" cx="88.67" cy="135.2" r="3.5"/><circle class="cls-12" cx="83.49" cy="137.88" r="3.5"/><circle class="cls-12" cx="80.34" cy="142.99" r="3.5"/><circle class="cls-12" cx="73.08" cy="133.8" r="3.5"/><circle class="cls-12" cx="84.09" cy="131.2" r="3.5"/><circle class="cls-12" cx="78.18" cy="136.95" r="3.5"/><circle class="cls-12" cx="79.11" cy="131.65" r="3.5"/><circle class="cls-12" cx="74" cy="128.5" r="3.5"/><circle class="cls-12" cx="112.02" cy="160.2" r="3.5"/><circle class="cls-12" cx="119.27" cy="169.38" r="3.5"/><circle class="cls-12" cx="114.09" cy="172.06" r="3.5"/><circle class="cls-12" cx="110.94" cy="177.17" r="3.5"/><circle class="cls-12" cx="103.68" cy="167.98" r="3.5"/><circle class="cls-12" cx="114.69" cy="165.38" r="3.5"/><circle class="cls-12" cx="108.79" cy="171.14" r="3.5"/><circle class="cls-12" cx="109.71" cy="165.83" r="3.5"/><circle class="cls-12" cx="104.61" cy="162.68" r="3.5"/><circle class="cls-12" cx="135.73" cy="104.21" r="3.5"/><circle class="cls-12" cx="146.73" cy="108.21" r="3.5"/><circle class="cls-12" cx="143.73" cy="113.21" r="3.5"/><circle class="cls-12" cx="143.73" cy="119.21" r="3.5"/><circle class="cls-12" cx="132.73" cy="115.21" r="3.5"/><circle class="cls-12" cx="140.73" cy="107.21" r="3.5"/><circle class="cls-12" cx="138.73" cy="115.21" r="3.5"/><circle class="cls-12" cx="136.73" cy="110.21" r="3.5"/><circle class="cls-12" cx="130.73" cy="110.21" r="3.5"/><circle class="cls-12" cx="151.73" cy="104.21" r="3.5"/><circle class="cls-12" cx="162.73" cy="108.21" r="3.5"/><circle class="cls-12" cx="159.73" cy="113.21" r="3.5"/><circle class="cls-12" cx="159.73" cy="119.21" r="3.5"/><circle class="cls-12" cx="148.73" cy="115.21" r="3.5"/><circle class="cls-12" cx="156.73" cy="107.21" r="3.5"/><circle class="cls-12" cx="154.73" cy="115.21" r="3.5"/><circle class="cls-12" cx="152.73" cy="110.21" r="3.5"/><circle class="cls-12" cx="146.73" cy="110.21" r="3.5"/><circle class="cls-12" cx="145.29" cy="90.05" r="3.5"/><circle class="cls-12" cx="151.1" cy="100.21" r="3.5"/><circle class="cls-12" cx="145.58" cy="102.08" r="3.5"/><circle class="cls-12" cx="141.7" cy="106.66" r="3.5"/><circle class="cls-12" cx="135.89" cy="96.5" r="3.5"/><circle class="cls-12" cx="147.16" cy="95.57" r="3.5"/><circle class="cls-12" cx="140.47" cy="100.38" r="3.5"/><circle class="cls-12" cx="142.17" cy="95.27" r="3.5"/><circle class="cls-12" cx="137.6" cy="91.39" r="3.5"/><circle class="cls-12" cx="169.73" cy="107.21" r="3.5"/><circle class="cls-12" cx="180.73" cy="111.21" r="3.5"/><circle class="cls-12" cx="177.73" cy="116.21" r="3.5"/><circle class="cls-12" cx="177.73" cy="122.21" r="3.5"/><circle class="cls-12" cx="166.73" cy="118.21" r="3.5"/><circle class="cls-12" cx="174.73" cy="110.21" r="3.5"/><circle class="cls-12" cx="172.73" cy="118.21" r="3.5"/><circle class="cls-12" cx="170.73" cy="113.21" r="3.5"/><circle class="cls-12" cx="164.73" cy="113.21" r="3.5"/><circle class="cls-12" cx="186.73" cy="106.21" r="3.5"/><circle class="cls-12" cx="197.73" cy="110.21" r="3.5"/><circle class="cls-12" cx="194.73" cy="115.21" r="3.5"/><circle class="cls-12" cx="194.73" cy="121.21" r="3.5"/><circle class="cls-12" cx="183.73" cy="117.21" r="3.5"/><circle class="cls-12" cx="191.73" cy="109.21" r="3.5"/><circle class="cls-12" cx="189.73" cy="117.21" r="3.5"/><circle class="cls-12" cx="187.73" cy="112.21" r="3.5"/><circle class="cls-12" cx="181.73" cy="112.21" r="3.5"/><circle class="cls-12" cx="174.73" cy="94.21" r="3.5"/><circle class="cls-12" cx="185.73" cy="98.21" r="3.5"/><circle class="cls-12" cx="182.73" cy="103.21" r="3.5"/><circle class="cls-12" cx="182.73" cy="109.21" r="3.5"/><circle class="cls-12" cx="171.73" cy="105.21" r="3.5"/><circle class="cls-12" cx="179.73" cy="97.21" r="3.5"/><circle class="cls-12" cx="177.73" cy="105.21" r="3.5"/><circle class="cls-12" cx="175.73" cy="100.21" r="3.5"/><circle class="cls-12" cx="169.73" cy="100.21" r="3.5"/><circle class="cls-12" cx="155.85" cy="99.5" r="3.5"/><circle class="cls-12" cx="161.52" cy="89.26" r="3.5"/><circle class="cls-12" cx="165.99" cy="93" r="3.5"/><circle class="cls-12" cx="171.92" cy="93.94" r="3.5"/><circle class="cls-12" cx="166.25" cy="104.18" r="3.5"/><circle class="cls-12" cx="159.6" cy="95.03" r="3.5"/><circle class="cls-12" cx="167.19" cy="98.25" r="3.5"/><circle class="cls-12" cx="161.94" cy="99.45" r="3.5"/><circle class="cls-12" cx="161" cy="105.38" r="3.5"/><circle class="cls-12" cx="146.73" cy="81.21" r="3.5"/><circle class="cls-12" cx="157.73" cy="85.21" r="3.5"/><circle class="cls-12" cx="154.73" cy="90.21" r="3.5"/><circle class="cls-12" cx="154.73" cy="96.21" r="3.5"/><circle class="cls-12" cx="143.73" cy="92.21" r="3.5"/><circle class="cls-12" cx="151.73" cy="84.21" r="3.5"/><circle class="cls-12" cx="149.73" cy="92.21" r="3.5"/><circle class="cls-12" cx="147.73" cy="87.21" r="3.5"/><circle class="cls-12" cx="141.73" cy="87.21" r="3.5"/><circle class="cls-12" cx="190.73" cy="94.21" r="3.5"/><circle class="cls-12" cx="201.73" cy="98.21" r="3.5"/><circle class="cls-12" cx="198.73" cy="103.21" r="3.5"/><circle class="cls-12" cx="198.73" cy="109.21" r="3.5"/><circle class="cls-12" cx="187.73" cy="105.21" r="3.5"/><circle class="cls-12" cx="195.73" cy="97.21" r="3.5"/><circle class="cls-12" cx="193.73" cy="105.21" r="3.5"/><circle class="cls-12" cx="191.73" cy="100.21" r="3.5"/><circle class="cls-12" cx="185.73" cy="100.21" r="3.5"/><circle class="cls-12" cx="73.16" cy="114.74" r="3.5"/><circle class="cls-12" cx="84.78" cy="113.33" r="3.5"/><circle class="cls-12" cx="84.37" cy="119.15" r="3.5"/><circle class="cls-12" cx="87.09" cy="124.5" r="3.5"/><circle class="cls-12" cx="75.47" cy="125.91" r="3.5"/><circle class="cls-12" cx="78.98" cy="115.15" r="3.5"/><circle class="cls-12" cx="80.82" cy="123.19" r="3.5"/><circle class="cls-12" cx="76.77" cy="119.64" r="3.5"/><circle class="cls-12" cx="71.42" cy="122.36" r="3.5"/><circle class="cls-12" cx="87.43" cy="107.5" r="3.5"/><circle class="cls-12" cx="99.05" cy="106.09" r="3.5"/><circle class="cls-12" cx="98.64" cy="111.9" r="3.5"/><circle class="cls-12" cx="101.35" cy="117.25" r="3.5"/><circle class="cls-12" cx="89.74" cy="118.67" r="3.5"/><circle class="cls-12" cx="93.25" cy="107.91" r="3.5"/><circle class="cls-12" cx="95.09" cy="115.95" r="3.5"/><circle class="cls-12" cx="91.04" cy="112.4" r="3.5"/><circle class="cls-12" cx="85.69" cy="115.11" r="3.5"/><circle class="cls-12" cx="75.28" cy="97.79" r="3.5"/><circle class="cls-12" cx="85.06" cy="104.22" r="3.5"/><circle class="cls-12" cx="80.98" cy="108.39" r="3.5"/><circle class="cls-12" cx="79.6" cy="114.23" r="3.5"/><circle class="cls-12" cx="69.82" cy="107.8" r="3.5"/><circle class="cls-12" cx="79.45" cy="101.86" r="3.5"/><circle class="cls-12" cx="75.66" cy="109.18" r="3.5"/><circle class="cls-12" cx="74.86" cy="103.86" r="3.5"/><circle class="cls-12" cx="69.03" cy="102.47" r="3.5"/><circle class="cls-12" cx="104.84" cy="102.03" r="3.5"/><circle class="cls-12" cx="116.46" cy="100.62" r="3.5"/><circle class="cls-12" cx="116.05" cy="106.43" r="3.5"/><circle class="cls-12" cx="118.76" cy="111.78" r="3.5"/><circle class="cls-12" cx="107.14" cy="113.19" r="3.5"/><circle class="cls-12" cx="110.66" cy="102.44" r="3.5"/><circle class="cls-12" cx="112.49" cy="110.48" r="3.5"/><circle class="cls-12" cx="108.45" cy="106.93" r="3.5"/><circle class="cls-12" cx="103.1" cy="109.64" r="3.5"/><circle class="cls-12" cx="119.55" cy="93.44" r="3.5"/><circle class="cls-12" cx="131.17" cy="92.03" r="3.5"/><circle class="cls-12" cx="130.75" cy="97.85" r="3.5"/><circle class="cls-12" cx="133.47" cy="103.2" r="3.5"/><circle class="cls-12" cx="121.85" cy="104.61" r="3.5"/><circle class="cls-12" cx="125.36" cy="93.85" r="3.5"/><circle class="cls-12" cx="127.2" cy="101.89" r="3.5"/><circle class="cls-12" cx="123.15" cy="98.34" r="3.5"/><circle class="cls-12" cx="117.8" cy="101.05" r="3.5"/><circle class="cls-12" cx="103.41" cy="88.17" r="3.5"/><circle class="cls-12" cx="115.03" cy="86.76" r="3.5"/><circle class="cls-12" cx="114.62" cy="92.58" r="3.5"/><circle class="cls-12" cx="117.34" cy="97.93" r="3.5"/><circle class="cls-12" cx="105.72" cy="99.34" r="3.5"/><circle class="cls-12" cx="109.23" cy="88.58" r="3.5"/><circle class="cls-12" cx="111.07" cy="96.62" r="3.5"/><circle class="cls-12" cx="107.02" cy="93.07" r="3.5"/><circle class="cls-12" cx="101.67" cy="95.79" r="3.5"/><circle class="cls-12" cx="88.98" cy="101.44" r="3.5"/><circle class="cls-12" cx="89.4" cy="89.74" r="3.5"/><circle class="cls-12" cx="95.08" cy="91.05" r="3.5"/><circle class="cls-12" cx="100.79" cy="89.21" r="3.5"/><circle class="cls-12" cx="100.37" cy="100.9" r="3.5"/><circle class="cls-12" cx="90.29" cy="95.76" r="3.5"/><circle class="cls-12" cx="98.52" cy="95.2" r="3.5"/><circle class="cls-12" cx="94.38" cy="98.64" r="3.5"/><circle class="cls-12" cx="96.23" cy="104.35" r="3.5"/><circle class="cls-12" cx="72.56" cy="89.25" r="3.5"/><circle class="cls-12" cx="84.18" cy="87.84" r="3.5"/><circle class="cls-12" cx="83.77" cy="93.66" r="3.5"/><circle class="cls-12" cx="86.49" cy="99.01" r="3.5"/><circle class="cls-12" cx="74.87" cy="100.42" r="3.5"/><circle class="cls-12" cx="78.38" cy="89.67" r="3.5"/><circle class="cls-12" cx="80.22" cy="97.71" r="3.5"/><circle class="cls-12" cx="76.17" cy="94.15" r="3.5"/><circle class="cls-12" cx="70.82" cy="96.87" r="3.5"/><circle class="cls-12" cx="117.68" cy="80.93" r="3.5"/><circle class="cls-12" cx="129.3" cy="79.52" r="3.5"/><circle class="cls-12" cx="128.89" cy="85.33" r="3.5"/><circle class="cls-12" cx="131.6" cy="90.68" r="3.5"/><circle class="cls-12" cx="119.99" cy="92.1" r="3.5"/><circle class="cls-12" cx="123.5" cy="81.34" r="3.5"/><circle class="cls-12" cx="125.34" cy="89.38" r="3.5"/><circle class="cls-12" cx="121.29" cy="85.83" r="3.5"/><circle class="cls-12" cx="115.94" cy="88.54" r="3.5"/><circle class="cls-12" cx="108.73" cy="171.21" r="3.5"/><circle class="cls-12" cx="119.73" cy="175.21" r="3.5"/><circle class="cls-12" cx="116.73" cy="180.21" r="3.5"/><circle class="cls-12" cx="116.73" cy="186.21" r="3.5"/><circle class="cls-12" cx="105.73" cy="182.21" r="3.5"/><circle class="cls-12" cx="113.73" cy="174.21" r="3.5"/><circle class="cls-12" cx="111.73" cy="182.21" r="3.5"/><circle class="cls-12" cx="109.73" cy="177.21" r="3.5"/><circle class="cls-12" cx="103.73" cy="177.21" r="3.5"/><circle class="cls-12" cx="124.73" cy="171.21" r="3.5"/><circle class="cls-12" cx="135.73" cy="175.21" r="3.5"/><circle class="cls-12" cx="132.73" cy="180.21" r="3.5"/><circle class="cls-12" cx="132.73" cy="186.21" r="3.5"/><circle class="cls-12" cx="121.73" cy="182.21" r="3.5"/><circle class="cls-12" cx="129.73" cy="174.21" r="3.5"/><circle class="cls-12" cx="127.73" cy="182.21" r="3.5"/><circle class="cls-12" cx="125.73" cy="177.21" r="3.5"/><circle class="cls-12" cx="119.73" cy="177.21" r="3.5"/><circle class="cls-12" cx="118.29" cy="157.05" r="3.5"/><circle class="cls-12" cx="124.1" cy="167.21" r="3.5"/><circle class="cls-12" cx="118.58" cy="169.08" r="3.5"/><circle class="cls-12" cx="114.7" cy="173.66" r="3.5"/><circle class="cls-12" cx="108.89" cy="163.5" r="3.5"/><circle class="cls-12" cx="120.16" cy="162.57" r="3.5"/><circle class="cls-12" cx="113.47" cy="167.38" r="3.5"/><circle class="cls-12" cx="115.17" cy="162.27" r="3.5"/><circle class="cls-12" cx="110.6" cy="158.39" r="3.5"/><circle class="cls-12" cx="142.73" cy="174.21" r="3.5"/><circle class="cls-12" cx="153.73" cy="178.21" r="3.5"/><circle class="cls-12" cx="150.73" cy="183.21" r="3.5"/><circle class="cls-12" cx="150.73" cy="189.21" r="3.5"/><circle class="cls-12" cx="139.73" cy="185.21" r="3.5"/><circle class="cls-12" cx="147.73" cy="177.21" r="3.5"/><circle class="cls-12" cx="145.73" cy="185.21" r="3.5"/><circle class="cls-12" cx="143.73" cy="180.21" r="3.5"/><circle class="cls-12" cx="137.73" cy="180.21" r="3.5"/><circle class="cls-12" cx="159.73" cy="173.21" r="3.5"/><circle class="cls-12" cx="170.73" cy="177.21" r="3.5"/><circle class="cls-12" cx="167.73" cy="182.21" r="3.5"/><circle class="cls-12" cx="167.73" cy="188.21" r="3.5"/><circle class="cls-12" cx="156.73" cy="184.21" r="3.5"/><circle class="cls-12" cx="164.73" cy="176.21" r="3.5"/><circle class="cls-12" cx="162.73" cy="184.21" r="3.5"/><circle class="cls-12" cx="160.73" cy="179.21" r="3.5"/><circle class="cls-12" cx="154.73" cy="179.21" r="3.5"/><circle class="cls-12" cx="147.73" cy="161.21" r="3.5"/><circle class="cls-12" cx="158.73" cy="165.21" r="3.5"/><circle class="cls-12" cx="155.73" cy="170.21" r="3.5"/><circle class="cls-12" cx="155.73" cy="176.21" r="3.5"/><circle class="cls-12" cx="144.73" cy="172.21" r="3.5"/><circle class="cls-12" cx="152.73" cy="164.21" r="3.5"/><circle class="cls-12" cx="150.73" cy="172.21" r="3.5"/><circle class="cls-12" cx="148.73" cy="167.21" r="3.5"/><circle class="cls-12" cx="142.73" cy="167.21" r="3.5"/><circle class="cls-12" cx="128.85" cy="166.5" r="3.5"/><circle class="cls-12" cx="134.52" cy="156.26" r="3.5"/><circle class="cls-12" cx="138.99" cy="160" r="3.5"/><circle class="cls-12" cx="144.92" cy="160.94" r="3.5"/><circle class="cls-12" cx="139.25" cy="171.18" r="3.5"/><circle class="cls-12" cx="132.6" cy="162.03" r="3.5"/><circle class="cls-12" cx="140.19" cy="165.25" r="3.5"/><circle class="cls-12" cx="134.94" cy="166.45" r="3.5"/><circle class="cls-12" cx="134" cy="172.38" r="3.5"/><circle class="cls-12" cx="119.73" cy="148.21" r="3.5"/><circle class="cls-12" cx="130.73" cy="152.21" r="3.5"/><circle class="cls-12" cx="127.73" cy="157.21" r="3.5"/><circle class="cls-12" cx="127.73" cy="163.21" r="3.5"/><circle class="cls-12" cx="116.73" cy="159.21" r="3.5"/><circle class="cls-12" cx="124.73" cy="151.21" r="3.5"/><circle class="cls-12" cx="122.73" cy="159.21" r="3.5"/><circle class="cls-12" cx="120.73" cy="154.21" r="3.5"/><circle class="cls-12" cx="114.73" cy="154.21" r="3.5"/><circle class="cls-12" cx="163.73" cy="161.21" r="3.5"/><circle class="cls-12" cx="174.73" cy="165.21" r="3.5"/><circle class="cls-12" cx="171.73" cy="170.21" r="3.5"/><circle class="cls-12" cx="171.73" cy="176.21" r="3.5"/><circle class="cls-12" cx="160.73" cy="172.21" r="3.5"/><circle class="cls-12" cx="168.73" cy="164.21" r="3.5"/><circle class="cls-12" cx="166.73" cy="172.21" r="3.5"/><circle class="cls-12" cx="164.73" cy="167.21" r="3.5"/><circle class="cls-12" cx="158.73" cy="167.21" r="3.5"/><circle class="cls-12" cx="114.32" cy="107.63" r="3.5"/><circle class="cls-12" cx="123.48" cy="100.33" r="3.5"/><circle class="cls-12" cx="126.17" cy="105.5" r="3.5"/><circle class="cls-12" cx="131.29" cy="108.64" r="3.5"/><circle class="cls-12" cx="122.13" cy="115.93" r="3.5"/><circle class="cls-12" cx="119.49" cy="104.93" r="3.5"/><circle class="cls-12" cx="125.27" cy="110.81" r="3.5"/><circle class="cls-12" cx="119.96" cy="109.91" r="3.5"/><circle class="cls-12" cx="116.83" cy="115.02" r="3.5"/><circle class="cls-12" cx="122.68" cy="93.98" r="3.5"/><circle class="cls-12" cx="131.83" cy="86.69" r="3.5"/><circle class="cls-12" cx="134.53" cy="91.86" r="3.5"/><circle class="cls-12" cx="139.65" cy="94.99" r="3.5"/><circle class="cls-12" cx="130.49" cy="102.28" r="3.5"/><circle class="cls-12" cx="127.85" cy="91.28" r="3.5"/><circle class="cls-12" cx="133.62" cy="97.17" r="3.5"/><circle class="cls-12" cx="128.31" cy="96.26" r="3.5"/><circle class="cls-12" cx="125.18" cy="101.38" r="3.5"/><circle class="cls-12" cx="107.23" cy="92.08" r="3.5"/><circle class="cls-12" cx="118.93" cy="92.43" r="3.5"/><circle class="cls-12" cx="117.65" cy="98.12" r="3.5"/><circle class="cls-12" cx="119.53" cy="103.82" r="3.5"/><circle class="cls-12" cx="107.83" cy="103.46" r="3.5"/><circle class="cls-12" cx="112.92" cy="93.36" r="3.5"/><circle class="cls-12" cx="113.53" cy="101.59" r="3.5"/><circle class="cls-12" cx="110.06" cy="97.46" r="3.5"/><circle class="cls-12" cx="104.36" cy="99.34" r="3.5"/><circle class="cls-12" cx="134.63" cy="80.2" r="3.5"/><circle class="cls-12" cx="143.79" cy="72.91" r="3.5"/><circle class="cls-12" cx="146.49" cy="78.08" r="3.5"/><circle class="cls-12" cx="151.6" cy="81.21" r="3.5"/><circle class="cls-12" cx="142.45" cy="88.5" r="3.5"/><circle class="cls-12" cx="139.8" cy="77.5" r="3.5"/><circle class="cls-12" cx="145.58" cy="83.38" r="3.5"/><circle class="cls-12" cx="140.27" cy="82.48" r="3.5"/><circle class="cls-12" cx="137.14" cy="87.59" r="3.5"/><circle class="cls-12" cx="142.66" cy="65.18" r="3.5"/><circle class="cls-12" cx="151.82" cy="57.89" r="3.5"/><circle class="cls-12" cx="154.51" cy="63.06" r="3.5"/><circle class="cls-12" cx="159.63" cy="66.19" r="3.5"/><circle class="cls-12" cx="150.47" cy="73.48" r="3.5"/><circle class="cls-12" cx="147.83" cy="62.48" r="3.5"/><circle class="cls-12" cx="153.61" cy="68.36" r="3.5"/><circle class="cls-12" cx="148.3" cy="67.46" r="3.5"/><circle class="cls-12" cx="145.17" cy="72.58" r="3.5"/><circle class="cls-12" cx="126.16" cy="69.14" r="3.5"/><circle class="cls-12" cx="135.32" cy="61.85" r="3.5"/><circle class="cls-12" cx="138.01" cy="67.02" r="3.5"/><circle class="cls-12" cx="143.13" cy="70.16" r="3.5"/><circle class="cls-12" cx="133.97" cy="77.45" r="3.5"/><circle class="cls-12" cx="131.33" cy="66.45" r="3.5"/><circle class="cls-12" cx="137.11" cy="72.33" r="3.5"/><circle class="cls-12" cx="131.8" cy="71.42" r="3.5"/><circle class="cls-12" cx="128.66" cy="76.54" r="3.5"/><circle class="cls-12" cx="120.81" cy="88.01" r="3.5"/><circle class="cls-12" cx="115.04" cy="77.82" r="3.5"/><circle class="cls-12" cx="120.57" cy="75.97" r="3.5"/><circle class="cls-12" cx="124.46" cy="71.4" r="3.5"/><circle class="cls-12" cx="130.24" cy="81.58" r="3.5"/><circle class="cls-12" cx="118.96" cy="82.48" r="3.5"/><circle class="cls-12" cx="125.67" cy="77.69" r="3.5"/><circle class="cls-12" cx="123.95" cy="82.79" r="3.5"/><circle class="cls-12" cx="128.51" cy="86.69" r="3.5"/><circle class="cls-12" cx="100.45" cy="86.23" r="3.5"/><circle class="cls-12" cx="109.61" cy="78.94" r="3.5"/><circle class="cls-12" cx="112.3" cy="84.11" r="3.5"/><circle class="cls-12" cx="117.42" cy="87.24" r="3.5"/><circle class="cls-12" cx="108.26" cy="94.54" r="3.5"/><circle class="cls-12" cx="105.62" cy="83.54" r="3.5"/><circle class="cls-12" cx="111.4" cy="89.42" r="3.5"/><circle class="cls-12" cx="106.09" cy="88.51" r="3.5"/><circle class="cls-12" cx="102.96" cy="93.63" r="3.5"/><circle class="cls-12" cx="134.52" cy="55.5" r="3.5"/><circle class="cls-12" cx="143.67" cy="48.21" r="3.5"/><circle class="cls-12" cx="146.37" cy="53.38" r="3.5"/><circle class="cls-12" cx="151.49" cy="56.51" r="3.5"/><circle class="cls-12" cx="142.33" cy="63.8" r="3.5"/><circle class="cls-12" cx="139.68" cy="52.8" r="3.5"/><circle class="cls-12" cx="145.46" cy="58.69" r="3.5"/><circle class="cls-12" cx="140.15" cy="57.78" r="3.5"/><circle class="cls-12" cx="137.02" cy="62.9" r="3.5"/><circle class="cls-12" cx="94.35" cy="87.82" r="3.5"/><circle class="cls-12" cx="106" cy="88.91" r="3.5"/><circle class="cls-12" cx="104.36" cy="94.51" r="3.5"/><circle class="cls-12" cx="105.87" cy="100.32" r="3.5"/><circle class="cls-12" cx="94.22" cy="99.22" r="3.5"/><circle class="cls-12" cx="99.94" cy="89.46" r="3.5"/><circle class="cls-12" cx="100.02" cy="97.7" r="3.5"/><circle class="cls-12" cx="96.83" cy="93.37" r="3.5"/><circle class="cls-12" cx="91.02" cy="94.88" r="3.5"/><circle class="cls-12" cx="109.83" cy="83.78" r="3.5"/><circle class="cls-12" cx="121.48" cy="84.88" r="3.5"/><circle class="cls-12" cx="119.84" cy="90.48" r="3.5"/><circle class="cls-12" cx="121.35" cy="96.28" r="3.5"/><circle class="cls-12" cx="109.7" cy="95.18" r="3.5"/><circle class="cls-12" cx="115.42" cy="85.43" r="3.5"/><circle class="cls-12" cx="115.5" cy="93.67" r="3.5"/><circle class="cls-12" cx="112.31" cy="89.34" r="3.5"/><circle class="cls-12" cx="106.5" cy="90.85" r="3.5"/><circle class="cls-12" cx="100.02" cy="71.7" r="3.5"/><circle class="cls-12" cx="108.21" cy="80.07" r="3.5"/><circle class="cls-12" cx="103.34" cy="83.28" r="3.5"/><circle class="cls-12" cx="100.74" cy="88.69" r="3.5"/><circle class="cls-12" cx="92.56" cy="80.32" r="3.5"/><circle class="cls-12" cx="103.23" cy="76.57" r="3.5"/><circle class="cls-12" cx="97.96" cy="82.92" r="3.5"/><circle class="cls-12" cx="98.33" cy="77.54" r="3.5"/><circle class="cls-12" cx="92.92" cy="74.94" r="3.5"/><circle class="cls-12" cx="128" cy="82.15" r="3.5"/><circle class="cls-12" cx="139.66" cy="83.25" r="3.5"/><circle class="cls-12" cx="138.01" cy="88.84" r="3.5"/><circle class="cls-12" cx="139.53" cy="94.65" r="3.5"/><circle class="cls-12" cx="127.87" cy="93.55" r="3.5"/><circle class="cls-12" cx="133.6" cy="83.79" r="3.5"/><circle class="cls-12" cx="133.68" cy="92.04" r="3.5"/><circle class="cls-12" cx="130.48" cy="87.7" r="3.5"/><circle class="cls-12" cx="124.68" cy="89.21" r="3.5"/><circle class="cls-12" cx="144.2" cy="76.89" r="3.5"/><circle class="cls-12" cx="155.86" cy="77.99" r="3.5"/><circle class="cls-12" cx="154.21" cy="83.59" r="3.5"/><circle class="cls-12" cx="155.73" cy="89.39" r="3.5"/><circle class="cls-12" cx="144.07" cy="88.3" r="3.5"/><circle class="cls-12" cx="149.8" cy="78.54" r="3.5"/><circle class="cls-12" cx="149.88" cy="86.78" r="3.5"/><circle class="cls-12" cx="146.68" cy="82.45" r="3.5"/><circle class="cls-12" cx="140.88" cy="83.96" r="3.5"/><circle class="cls-12" cx="129.56" cy="68.31" r="3.5"/><circle class="cls-12" cx="141.22" cy="69.4" r="3.5"/><circle class="cls-12" cx="139.57" cy="75" r="3.5"/><circle class="cls-12" cx="141.09" cy="80.81" r="3.5"/><circle class="cls-12" cx="129.43" cy="79.71" r="3.5"/><circle class="cls-12" cx="135.16" cy="69.95" r="3.5"/><circle class="cls-12" cx="135.24" cy="78.2" r="3.5"/><circle class="cls-12" cx="132.04" cy="73.86" r="3.5"/><circle class="cls-12" cx="126.24" cy="75.37" r="3.5"/><circle class="cls-12" cx="112.63" cy="78.19" r="3.5"/><circle class="cls-12" cx="115.53" cy="66.85" r="3.5"/><circle class="cls-12" cx="120.8" cy="69.34" r="3.5"/><circle class="cls-12" cx="126.78" cy="68.76" r="3.5"/><circle class="cls-12" cx="123.87" cy="80.1" r="3.5"/><circle class="cls-12" cx="115.13" cy="72.92" r="3.5"/><circle class="cls-12" cx="123.29" cy="74.12" r="3.5"/><circle class="cls-12" cx="118.51" cy="76.6" r="3.5"/><circle class="cls-12" cx="119.09" cy="82.58" r="3.5"/><circle class="cls-12" cx="99.19" cy="62.79" r="3.5"/><circle class="cls-12" cx="110.84" cy="63.88" r="3.5"/><circle class="cls-12" cx="109.2" cy="69.48" r="3.5"/><circle class="cls-12" cx="110.71" cy="75.28" r="3.5"/><circle class="cls-12" cx="99.06" cy="74.19" r="3.5"/><circle class="cls-12" cx="104.79" cy="64.43" r="3.5"/><circle class="cls-12" cx="104.87" cy="72.67" r="3.5"/><circle class="cls-12" cx="101.67" cy="68.34" r="3.5"/><circle class="cls-12" cx="95.87" cy="69.85" r="3.5"/><circle class="cls-12" cx="145.05" cy="64.27" r="3.5"/><circle class="cls-12" cx="156.7" cy="65.37" r="3.5"/><circle class="cls-12" cx="155.06" cy="70.97" r="3.5"/><circle class="cls-12" cx="156.57" cy="76.77" r="3.5"/><circle class="cls-12" cx="144.92" cy="75.67" r="3.5"/><circle class="cls-12" cx="150.64" cy="65.92" r="3.5"/><circle class="cls-12" cx="150.72" cy="74.16" r="3.5"/><circle class="cls-12" cx="147.53" cy="69.83" r="3.5"/><circle class="cls-12" cx="141.72" cy="71.34" r="3.5"/><circle class="cls-12" cx="166.81" cy="85.86" r="3.5"/><circle class="cls-12" cx="172.11" cy="83.43" r="3.5"/><circle class="cls-12" cx="177.88" cy="87.4" r="3.5"/><circle class="cls-12" cx="168.41" cy="90.59" r="3.5"/><circle class="cls-12" cx="173.71" cy="88.17" r="3.5"/><circle class="cls-12" cx="179.48" cy="92.13" r="3.5"/><circle class="cls-12" cx="179.24" cy="83.99" r="3.5"/><circle class="cls-12" cx="183.4" cy="88.07" r="3.5"/><circle class="cls-12" cx="181.77" cy="94.88" r="3.5"/><circle class="cls-12" cx="154.8" cy="76.35" r="3.5"/><circle class="cls-12" cx="160.63" cy="76.44" r="3.5"/><circle class="cls-12" cx="164.13" cy="82.5" r="3.5"/><circle class="cls-12" cx="154.2" cy="81.31" r="3.5"/><circle class="cls-12" cx="160.03" cy="81.4" r="3.5"/><circle class="cls-12" cx="163.54" cy="87.46" r="3.5"/><circle class="cls-12" cx="166.82" cy="80" r="3.5"/><circle class="cls-12" cx="168.82" cy="85.48" r="3.5"/><circle class="cls-12" cx="164.43" cy="90.92" r="3.5"/><circle class="cls-12" cx="199.73" cy="186.21" r="3.5"/><circle class="cls-12" cx="167.23" cy="210.71" r="4"/><circle class="cls-12" cx="138.23" cy="225.71" r="6"/><circle class="cls-12" cx="193.73" cy="184.21" r="3.5"/><circle class="cls-12" cx="43.73" cy="169.21" r="3.5"/><circle class="cls-12" cx="205.73" cy="190.2" r="3.5"/><circle class="cls-12" cx="199.73" cy="192.22" r="3.5"/><circle class="cls-12" cx="146.73" cy="201.21" r="3.5"/><circle class="cls-12" cx="140.73" cy="199.21" r="3.5"/></g></svg>